<svg width="26" height="26" viewBox="0 0 26 26" fill="none" xmlns="http://www.w3.org/2000/svg">
<g clip-path="url(#clip0_188_529)">
<path d="M25.74 4.82625V20.9137H1.60875V17.6962H0V3.2175H22.5225V4.82625H25.74ZM19.305 4.82625C19.305 5.05248 19.3469 5.26195 19.4307 5.45467C19.5145 5.64738 19.6276 5.81496 19.77 5.9574C19.9125 6.09984 20.0842 6.21715 20.2853 6.30931C20.4864 6.40148 20.6959 6.44338 20.9137 6.435V4.82625H19.305ZM1.60875 6.435C1.83498 6.435 2.04445 6.3931 2.23717 6.30931C2.42988 6.22553 2.59746 6.11241 2.7399 5.96997C2.88234 5.82753 2.99965 5.65576 3.09182 5.45467C3.18398 5.25357 3.22588 5.0441 3.2175 4.82625H1.60875V6.435ZM1.60875 12.87C2.05283 12.87 2.46759 12.9538 2.85302 13.1214C3.23845 13.2889 3.58198 13.5194 3.88362 13.8126C4.18526 14.1059 4.41568 14.4452 4.57488 14.8307C4.73408 15.2161 4.81787 15.635 4.82625 16.0875H17.6962C17.6962 15.6434 17.78 15.2287 17.9476 14.8432C18.1152 14.4578 18.3456 14.1143 18.6389 13.8126C18.9321 13.511 19.2715 13.2806 19.6569 13.1214C20.0423 12.9622 20.4613 12.8784 20.9137 12.87V8.04375C20.4697 8.04375 20.0549 7.95996 19.6695 7.79238C19.2841 7.6248 18.9405 7.39438 18.6389 7.10112C18.3372 6.80786 18.1068 6.46851 17.9476 6.08308C17.7884 5.69765 17.7046 5.27871 17.6962 4.82625H4.82625C4.82625 5.27033 4.74246 5.68509 4.57488 6.07052C4.4073 6.45595 4.17688 6.79948 3.88362 7.10112C3.59036 7.40276 3.25102 7.63318 2.86559 7.79238C2.48016 7.95158 2.06121 8.03537 1.60875 8.04375V12.87ZM20.9137 14.4787C20.6875 14.4787 20.478 14.5206 20.2853 14.6044C20.0926 14.6882 19.925 14.8013 19.7826 14.9438C19.6402 15.0862 19.5229 15.258 19.4307 15.4591C19.3385 15.6602 19.2966 15.8696 19.305 16.0875H20.9137V14.4787ZM1.60875 16.0875H3.2175C3.2175 15.8613 3.17561 15.6518 3.09182 15.4591C3.00803 15.2664 2.89491 15.0988 2.75247 14.9563C2.61003 14.8139 2.43826 14.6966 2.23717 14.6044C2.03607 14.5123 1.8266 14.4704 1.60875 14.4787V16.0875ZM24.1313 6.435H22.5225V17.6962H3.2175V19.305H24.1313V6.435ZM5.63062 11.2612C5.41277 11.2612 5.22425 11.1816 5.06505 11.0224C4.90585 10.8633 4.82625 10.6747 4.82625 10.4569C4.82625 10.239 4.90585 10.0505 5.06505 9.8913C5.22425 9.7321 5.41277 9.6525 5.63062 9.6525C5.84848 9.6525 6.037 9.7321 6.1962 9.8913C6.3554 10.0505 6.435 10.239 6.435 10.4569C6.435 10.6747 6.3554 10.8633 6.1962 11.0224C6.037 11.1816 5.84848 11.2612 5.63062 11.2612ZM16.8919 11.2612C16.674 11.2612 16.4855 11.1816 16.3263 11.0224C16.1671 10.8633 16.0875 10.6747 16.0875 10.4569C16.0875 10.239 16.1671 10.0505 16.3263 9.8913C16.4855 9.7321 16.674 9.6525 16.8919 9.6525C17.1097 9.6525 17.2983 9.7321 17.4575 9.8913C17.6166 10.0505 17.6962 10.239 17.6962 10.4569C17.6962 10.6747 17.6166 10.8633 17.4575 11.0224C17.2983 11.1816 17.1097 11.2612 16.8919 11.2612ZM11.2612 14.4787C10.8172 14.4787 10.4024 14.395 10.017 14.2274C9.63155 14.0598 9.28802 13.8294 8.98638 13.5361C8.68474 13.2429 8.45432 12.9035 8.29512 12.5181C8.13592 12.1327 8.05213 11.7137 8.04375 11.2612V9.6525C8.04375 9.20842 8.12754 8.79366 8.29512 8.40823C8.4627 8.0228 8.69312 7.67927 8.98638 7.37763C9.27964 7.07598 9.61898 6.84556 10.0044 6.68637C10.3898 6.52717 10.8088 6.44338 11.2612 6.435C11.7053 6.435 12.1201 6.51879 12.5055 6.68637C12.8909 6.85394 13.2345 7.08436 13.5361 7.37763C13.8378 7.67089 14.0682 8.01023 14.2274 8.39566C14.3866 8.78109 14.4704 9.20004 14.4788 9.6525V11.2612C14.4788 11.7053 14.395 12.1201 14.2274 12.5055C14.0598 12.8909 13.8294 13.2345 13.5361 13.5361C13.2429 13.8378 12.9035 14.0682 12.5181 14.2274C12.1327 14.3866 11.7137 14.4704 11.2612 14.4787ZM9.6525 11.2612C9.6525 11.4875 9.69439 11.697 9.77818 11.8897C9.86197 12.0824 9.97509 12.25 10.1175 12.3924C10.26 12.5348 10.4317 12.6521 10.6328 12.7443C10.8339 12.8365 11.0434 12.8784 11.2612 12.87C11.4875 12.87 11.697 12.8281 11.8897 12.7443C12.0824 12.6605 12.25 12.5474 12.3924 12.405C12.5348 12.2625 12.6521 12.0908 12.7443 11.8897C12.8365 11.6886 12.8784 11.4791 12.87 11.2612V9.6525C12.87 9.42627 12.8281 9.21679 12.7443 9.02408C12.6605 8.83137 12.5474 8.66379 12.405 8.52135C12.2625 8.3789 12.0908 8.2616 11.8897 8.16943C11.6886 8.07726 11.4791 8.03537 11.2612 8.04375C11.035 8.04375 10.8255 8.08564 10.6328 8.16943C10.4401 8.25322 10.2725 8.36634 10.1301 8.50878C9.98766 8.65122 9.87035 8.82299 9.77818 9.02408C9.68602 9.22517 9.64412 9.43465 9.6525 9.6525V11.2612Z" fill="#7D8527"/>
</g>
<defs>
<clipPath id="clip0_188_529">
<rect width="25.74" height="25.74" fill="white"/>
</clipPath>
</defs>
</svg>
