<svg width="26" height="26" viewBox="0 0 26 26" fill="none" xmlns="http://www.w3.org/2000/svg">
<path d="M12.87 2.57397C10.1393 2.57397 7.52048 3.65873 5.5896 5.5896C3.65873 7.52048 2.57397 10.1393 2.57397 12.87C2.57397 15.6006 3.65873 18.2195 5.5896 20.1503C7.52048 22.0812 10.1393 23.166 12.87 23.166C15.6006 23.166 18.2195 22.0812 20.1503 20.1503C22.0812 18.2195 23.166 15.6006 23.166 12.87C23.166 10.1393 22.0812 7.52048 20.1503 5.5896C18.2195 3.65873 15.6006 2.57397 12.87 2.57397ZM9.12738 4.67178L12.229 6.48131V8.66921L8.66535 11.1814L6.65763 10.4517L5.85196 7.21876C6.73156 6.12733 7.85289 5.25539 9.12738 4.67178ZM3.90473 13.7606L6.25608 11.6756L8.24578 12.3976L9.5907 16.6319L8.66792 18.0128H5.4723C4.59392 16.7532 4.05412 15.2889 3.90473 13.7606ZM10.776 21.6344L9.72712 18.7438L10.6409 17.3758H15.1029L16.018 18.7438L14.9691 21.6332C13.5908 21.9622 12.1543 21.9635 10.776 21.6344ZM20.2677 18.0128H17.0785L16.1518 16.6293L17.471 12.3989L19.4877 11.6731L21.8352 13.7606C21.6858 15.2889 21.146 16.7532 20.2677 18.0128ZM19.8944 7.22777L19.0888 10.4491L17.0501 11.1827L13.5148 8.67049V6.48259L16.6151 4.67178C17.8918 5.25705 19.0146 6.13174 19.8944 7.22648V7.22777Z" fill="#604CF6"/>
</svg>
