<svg width="27" height="26" viewBox="0 0 27 26" fill="none" xmlns="http://www.w3.org/2000/svg">
<path d="M14.3519 6.43573L11.134 11.2625H13.2793V14.4804L16.4972 9.65361H14.3519V6.43573Z" fill="#871822"/>
<path fill-rule="evenodd" clip-rule="evenodd" d="M21.2757 10.3363C21.1129 11.7175 20.5577 13.0232 19.6759 14.0986C19.1599 14.7287 17.8486 16.5291 17.5698 17.6983H10.0614C9.7825 16.5281 8.46961 14.7277 7.95367 14.097C7.07222 13.0211 6.51759 11.7151 6.35546 10.3337C6.19562 8.95521 6.43618 7.55988 7.04838 6.31453C7.66633 5.05968 8.62689 4.0054 9.81897 3.27364C11.0214 2.53472 12.4053 2.14409 13.8166 2.14524C15.2314 2.14524 16.6173 2.53674 17.8143 3.27525C19.0061 4.00729 19.9663 5.06175 20.5838 6.31668C21.1958 7.5623 21.436 8.95782 21.2757 10.3363ZM16.8098 16.6257H10.8208C10.5923 16.0985 10.2872 15.5702 10.0029 15.1213C9.62889 14.5314 9.22209 13.9629 8.78442 13.4185C8.03262 12.5012 7.5595 11.3877 7.42111 10.2098C7.28488 9.03587 7.48969 7.84758 8.01106 6.78702C8.53992 5.71393 9.36177 4.81249 10.3816 4.18698C11.4148 3.55224 12.604 3.21674 13.8166 3.21786C15.0341 3.21786 16.2247 3.5552 17.2517 4.18859C18.2711 4.81423 19.0926 5.71566 19.6212 6.78863C20.1423 7.84945 20.3467 9.03795 20.21 10.2119C20.0711 11.3896 19.5976 12.5027 18.8457 13.4196C18.4078 13.9637 18.0011 14.5322 17.6277 15.1224C17.3434 15.5713 17.0383 16.0985 16.8098 16.6257Z" fill="#871822"/>
<path d="M10.0613 19.3072C10.0613 19.165 10.1178 19.0286 10.2184 18.928C10.3189 18.8274 10.4554 18.7709 10.5976 18.7709H17.0333C17.1756 18.7709 17.312 18.8274 17.4126 18.928C17.5132 19.0286 17.5697 19.165 17.5697 19.3072C17.5697 19.4495 17.5132 19.5859 17.4126 19.6865C17.312 19.7871 17.1756 19.8436 17.0333 19.8436H10.5976C10.4554 19.8436 10.3189 19.7871 10.2184 19.6865C10.1178 19.5859 10.0613 19.4495 10.0613 19.3072Z" fill="#871822"/>
<path fill-rule="evenodd" clip-rule="evenodd" d="M10.0613 20.9162H17.5697V22.5251C17.5697 22.8096 17.4567 23.0824 17.2555 23.2836C17.0543 23.4848 16.7815 23.5978 16.497 23.5978H11.1339C10.8494 23.5978 10.5766 23.4848 10.3754 23.2836C10.1743 23.0824 10.0613 22.8096 10.0613 22.5251V20.9162ZM11.1339 21.9888H16.497V22.5251H11.1339V21.9888Z" fill="#871822"/>
</svg>
