<svg width="480" height="618" viewBox="0 0 480 618" fill="none" xmlns="http://www.w3.org/2000/svg">
<path d="M197.974 460.765L198.139 367.334C198.137 366.068 198.637 364.852 199.528 363.953C200.42 363.054 201.631 362.544 202.897 362.534L260.299 362.638C261.566 362.637 262.781 363.136 263.68 364.028C264.58 364.919 265.09 366.13 265.099 367.396L264.965 460.902C264.966 462.175 264.461 463.396 263.561 464.296C262.662 465.197 261.442 465.703 260.169 465.704L202.766 465.6C202.136 465.601 201.512 465.478 200.93 465.238C200.348 464.998 199.819 464.645 199.373 464.2C198.927 463.755 198.573 463.227 198.331 462.645C198.09 462.064 197.965 461.44 197.964 460.81L197.974 460.765Z" fill="#5F8EFF"/>
<path d="M197.974 460.765C197.994 461.05 198.014 461.329 198.034 461.615C198.183 462.44 198.55 463.211 199.098 463.846C199.538 464.359 200.083 464.773 200.696 465.059C201.308 465.345 201.975 465.498 202.651 465.506C204.27 465.506 206.138 465.507 208.234 465.505L243.782 465.529C247.534 465.531 251.463 465.534 255.568 465.54C256.588 465.544 257.627 465.54 258.666 465.543C259.703 465.649 260.751 465.548 261.749 465.248C262.739 464.889 263.575 464.199 264.115 463.295C264.39 462.841 264.588 462.345 264.699 461.826C264.782 461.292 264.814 460.752 264.795 460.213L264.827 432.032L264.963 367.463C264.965 366.772 264.812 366.09 264.515 365.465C264.218 364.841 263.785 364.292 263.248 363.857C262.714 363.422 262.088 363.113 261.418 362.954C260.735 362.824 260.038 362.779 259.344 362.821C256.513 362.81 253.703 362.797 250.915 362.782C245.334 362.754 239.843 362.744 234.443 362.754C223.644 362.731 213.222 362.706 203.303 362.684C202.092 362.603 200.897 362.989 199.963 363.762C199.043 364.524 198.453 365.612 198.317 366.798C198.251 369.181 198.294 371.587 198.27 373.934L198.24 387.608L198.174 412.164L198.06 447.712L198.007 457.372L197.971 459.924L197.956 460.779C197.956 460.779 197.935 460.494 197.94 459.926L197.925 457.378L197.908 447.716L197.932 412.162L197.936 387.629L197.952 373.95C197.97 371.597 197.923 369.236 197.991 366.783C198.134 365.52 198.759 364.361 199.737 363.549C200.728 362.734 201.989 362.324 203.27 362.399C213.195 362.415 223.611 362.433 234.415 362.45C239.816 362.457 245.307 362.465 250.886 362.472C253.678 362.478 256.488 362.49 259.315 362.511C260.035 362.471 260.758 362.518 261.467 362.651C262.55 362.912 263.514 363.531 264.203 364.407C264.892 365.283 265.266 366.366 265.264 367.48L265.134 432.049L265.07 460.225C265.09 460.782 265.055 461.34 264.965 461.89C264.79 462.709 264.413 463.472 263.869 464.108C263.324 464.745 262.628 465.235 261.846 465.534C261.334 465.724 260.794 465.825 260.248 465.832C259.715 465.87 259.197 465.837 258.668 465.836C257.628 465.834 256.589 465.831 255.569 465.827C251.468 465.816 247.541 465.806 243.789 465.797C228.781 465.747 216.636 465.705 208.234 465.677C206.136 465.667 204.281 465.658 202.655 465.652C201.965 465.639 201.287 465.477 200.665 465.178C200.043 464.879 199.493 464.45 199.052 463.92C198.502 463.275 198.14 462.491 198.005 461.655C197.971 461.445 197.956 461.233 197.96 461.021L197.974 460.765Z" fill="#263238"/>
<path d="M222.301 371.724L216.564 371.717L216.567 371.13L221.762 371.137L221.762 369.793L222.285 369.794L222.301 371.724Z" fill="#FAFAFA"/>
<path d="M217.079 377.621L216.556 377.613L216.564 373.603L216.976 373.574L219.3 375.959C219.938 376.602 220.317 376.728 220.712 376.725C221.35 376.731 221.782 376.26 221.783 375.374C221.804 375.083 221.757 374.791 221.647 374.52C221.538 374.249 221.367 374.007 221.149 373.813L221.508 373.399C221.786 373.655 222.003 373.97 222.143 374.32C222.284 374.671 222.345 375.048 222.322 375.425C222.321 376.585 221.73 377.322 220.773 377.32C220.424 377.303 220.083 377.21 219.774 377.047C219.465 376.884 219.196 376.655 218.985 376.376L217.082 374.433L217.079 377.621Z" fill="#FAFAFA"/>
<path d="M218.047 383.62L218.049 382.479L216.544 382.471L216.547 381.884L218.051 381.886L218.052 378.661L218.476 378.63L222.262 381.67L222.262 382.307L218.574 379.382L218.566 381.868L219.892 381.87L219.895 382.443L218.569 382.442L218.567 383.583L218.047 383.62Z" fill="#FAFAFA"/>
<path d="M218.032 392.385L218.034 391.244L216.529 391.236L216.532 390.649L218.03 390.651L218.037 387.425L218.462 387.395L222.247 390.434L222.241 391.072L218.56 388.147L218.551 390.633L219.877 390.635L219.873 391.208L218.553 391.2L218.552 392.348L218.032 392.385Z" fill="#FAFAFA"/>
<path d="M218.202 397.382C217.227 397.381 216.471 396.702 216.474 395.306C216.447 394.553 216.712 393.82 217.214 393.259L217.674 393.545C217.232 394.021 216.993 394.65 217.009 395.3C217.008 396.269 217.484 396.783 218.179 396.785C218.874 396.786 219.37 396.33 219.375 394.877L219.378 393.659L222.242 393.959L222.235 397.089L221.712 397.088L221.718 394.475L219.9 394.272L219.895 395.012C219.896 396.733 219.216 397.387 218.202 397.382Z" fill="#FAFAFA"/>
<path d="M218.215 403.035C217.745 403.029 217.297 402.838 216.967 402.503C216.638 402.169 216.454 401.717 216.456 401.248L216.445 401.095C216.446 399.572 217.503 398.751 219.307 398.757C221.251 398.759 222.263 399.822 222.259 401.377C222.28 401.849 222.172 402.317 221.947 402.732L221.471 402.491C221.667 402.156 221.762 401.77 221.743 401.382C221.745 400.145 220.962 399.353 219.406 399.349L218.937 399.382C219.253 399.547 219.513 399.799 219.687 400.11C219.861 400.42 219.94 400.775 219.915 401.129C219.963 401.58 219.831 402.031 219.548 402.385C219.266 402.739 218.855 402.968 218.405 403.021C218.342 403.032 218.279 403.037 218.215 403.035ZM218.174 402.458C218.926 402.462 219.409 401.905 219.411 401.025C219.431 400.852 219.416 400.678 219.369 400.511C219.321 400.343 219.241 400.187 219.133 400.051C219.025 399.915 218.892 399.801 218.74 399.717C218.588 399.632 218.421 399.579 218.248 399.559C218.248 399.559 218.191 399.563 218.166 399.565C217.528 399.559 216.928 400.086 216.935 401.073C216.918 401.24 216.935 401.408 216.983 401.568C217.032 401.728 217.112 401.877 217.218 402.006C217.324 402.136 217.455 402.243 217.603 402.321C217.75 402.4 217.912 402.449 218.079 402.465C218.119 402.465 218.159 402.462 218.199 402.456L218.174 402.458Z" fill="#FAFAFA"/>
<path d="M218.133 410.861C217.177 410.859 216.446 410.165 216.449 408.782C216.422 408.027 216.687 407.291 217.19 406.728L217.65 407.014C217.209 407.496 216.971 408.129 216.985 408.782C216.989 409.731 217.427 410.255 218.135 410.256C218.842 410.256 219.273 409.773 219.3 408.713L219.303 408.305L219.736 408.306L221.717 409.893L221.719 406.967L222.242 406.968L222.235 410.646L221.821 410.644L219.794 409.022C219.696 410.253 219.051 410.86 218.133 410.861Z" fill="#FAFAFA"/>
<path d="M218.19 416.593C217.718 416.591 217.267 416.402 216.935 416.067C216.602 415.732 216.417 415.279 216.418 414.807C216.408 414.751 216.404 414.693 216.406 414.636C216.407 413.119 217.464 412.292 219.268 412.297C221.18 412.302 222.224 413.362 222.22 414.918C222.241 415.389 222.133 415.857 221.908 416.272L221.432 416.032C221.631 415.697 221.726 415.311 221.704 414.922C221.706 413.686 220.923 412.894 219.367 412.89L218.898 412.923C219.213 413.087 219.474 413.34 219.648 413.65C219.822 413.961 219.901 414.315 219.876 414.67C219.927 415.125 219.796 415.582 219.511 415.94C219.226 416.299 218.81 416.53 218.355 416.582C218.3 416.591 218.245 416.595 218.19 416.593ZM218.149 416.016C218.901 416.02 219.384 415.463 219.386 414.584C219.406 414.411 219.391 414.236 219.344 414.069C219.296 413.902 219.216 413.746 219.108 413.61C219 413.473 218.867 413.36 218.715 413.275C218.563 413.191 218.396 413.137 218.223 413.117C218.223 413.117 218.166 413.121 218.141 413.123C217.503 413.118 216.903 413.645 216.91 414.632C216.893 414.799 216.91 414.967 216.958 415.127C217.007 415.287 217.087 415.436 217.193 415.565C217.299 415.694 217.43 415.801 217.578 415.88C217.725 415.958 217.887 416.007 218.054 416.023C218.094 416.023 218.134 416.02 218.174 416.015L218.149 416.016Z" fill="#FAFAFA"/>
<path d="M222.191 421.874L221.777 421.871L216.507 419.467L216.507 418.829L221.697 421.195L221.705 418.256L220.634 418.249L220.631 417.669L222.225 417.677L222.191 421.874Z" fill="#FAFAFA"/>
<path d="M222.179 430.039L221.758 430.037L216.488 427.632L216.488 426.995L221.678 429.354L221.686 426.415L220.615 426.415L220.618 425.835L222.212 425.836L222.179 430.039Z" fill="#FAFAFA"/>
<path d="M218.04 435.655C217.026 435.657 216.404 434.796 216.403 433.432C216.402 432.068 217.037 431.227 218.051 431.231C218.375 431.23 218.69 431.338 218.945 431.539C219.2 431.739 219.38 432.02 219.455 432.336C219.536 432.069 219.704 431.837 219.93 431.674C220.157 431.512 220.431 431.429 220.71 431.437C221.641 431.441 222.22 432.235 222.223 433.446C222.226 434.657 221.634 435.464 220.703 435.466C220.423 435.472 220.148 435.386 219.922 435.22C219.695 435.054 219.53 434.817 219.452 434.548C219.377 434.865 219.196 435.147 218.939 435.348C218.683 435.549 218.366 435.657 218.04 435.655ZM218.048 435.055C218.756 435.056 219.197 434.451 219.208 433.437C219.219 432.423 218.775 431.83 218.067 431.829C217.36 431.828 216.918 432.421 216.907 433.435C216.896 434.449 217.341 435.055 218.048 435.055ZM219.673 433.436C219.673 434.328 220.074 434.861 220.692 434.861C221.31 434.862 221.736 434.296 221.732 433.443C221.729 432.589 221.345 432.03 220.708 432.03C220.07 432.031 219.668 432.55 219.673 433.436Z" fill="#FAFAFA"/>
<path d="M219.345 441.197C217.4 441.195 216.388 440.132 216.392 438.576C216.378 438.106 216.485 437.639 216.704 437.222L217.18 437.456C216.985 437.794 216.89 438.182 216.908 438.572C216.906 439.802 217.689 440.594 219.251 440.598L219.714 440.565C219.397 440.4 219.136 440.147 218.962 439.835C218.788 439.523 218.709 439.167 218.735 438.812C218.684 438.356 218.815 437.899 219.101 437.541C219.386 437.183 219.802 436.952 220.257 436.9C220.322 436.889 220.388 436.884 220.453 436.886C220.922 436.893 221.37 437.085 221.699 437.419C222.028 437.753 222.212 438.204 222.212 438.673L222.222 438.819C222.207 440.394 221.15 441.215 219.345 441.197ZM220.485 440.389C221.123 440.388 221.723 439.868 221.71 438.881C221.744 438.545 221.643 438.21 221.43 437.949C221.216 437.689 220.908 437.523 220.573 437.489C220.539 437.489 220.505 437.491 220.471 437.496C219.719 437.492 219.236 438.049 219.235 438.929C219.19 439.276 219.284 439.627 219.497 439.905C219.711 440.182 220.025 440.364 220.372 440.41L220.486 440.402L220.485 440.389Z" fill="#FAFAFA"/>
<path d="M212.243 414.063L209.758 414.059L209.68 459.866L212.166 459.87L212.243 414.063Z" fill="#FAFAFA"/>
<path d="M207.241 436.375L204.755 436.371L204.715 459.862L207.201 459.867L207.241 436.375Z" fill="#FAFAFA"/>
<path d="M238.393 368.244L230.344 368.229C228.602 368.226 227.188 369.635 227.185 371.377L227.16 384.289C227.157 386.031 228.566 387.445 230.308 387.448L238.357 387.463C240.098 387.467 241.513 386.057 241.516 384.316L241.54 371.403C241.543 369.662 240.134 368.247 238.393 368.244Z" fill="#455A64"/>
<path d="M231.174 368.238L232.092 368.243L232.075 378.136C232.066 378.409 232.111 378.68 232.207 378.935C232.303 379.189 232.449 379.423 232.635 379.622C232.821 379.82 233.045 379.98 233.293 380.092C233.541 380.205 233.809 380.267 234.081 380.276C234.354 380.284 234.625 380.239 234.88 380.143C235.134 380.047 235.368 379.902 235.567 379.715C235.765 379.529 235.925 379.305 236.037 379.057C236.15 378.809 236.212 378.541 236.221 378.269L236.214 378.174L236.231 368.281L237.155 368.279L237.138 378.178C237.111 378.954 236.783 379.689 236.224 380.228C235.665 380.767 234.918 381.068 234.142 381.067C233.365 381.066 232.619 380.763 232.062 380.223C231.504 379.682 231.178 378.946 231.153 378.17L231.174 368.238Z" fill="#5F8EFF"/>
<path d="M234.614 380.67L233.692 380.667L233.674 387.457L234.596 387.46L234.614 380.67Z" fill="#5F8EFF"/>
<path d="M253.375 370.541L249.134 370.533L249.041 419.964L253.282 419.972L253.375 370.541Z" fill="#FAFAFA"/>
<path d="M222.148 447.021L216.411 447.007L216.408 446.421L221.603 446.428L221.609 445.083L222.132 445.084L222.148 447.021Z" fill="#FAFAFA"/>
<path d="M216.944 452.891L216.421 452.89L216.423 448.881L216.842 448.851L219.165 451.235C219.797 451.879 220.182 452.004 220.578 452.008C221.215 452.008 221.647 451.543 221.648 450.657C221.665 450.366 221.618 450.075 221.508 449.805C221.398 449.535 221.23 449.293 221.015 449.096L221.394 448.7C221.672 448.956 221.889 449.271 222.03 449.621C222.17 449.972 222.231 450.349 222.208 450.726C222.207 451.886 221.616 452.623 220.659 452.621C220.111 452.621 219.621 452.446 218.872 451.677L216.962 449.735L216.944 452.891Z" fill="#FAFAFA"/>
<path d="M218.047 458.02C217.098 458.017 216.36 457.324 216.364 455.947C216.336 455.191 216.601 454.453 217.104 453.887L217.57 454.172C217.348 454.41 217.175 454.689 217.061 454.993C216.947 455.298 216.895 455.622 216.906 455.947C216.903 456.89 217.342 457.414 218.05 457.421C218.758 457.428 219.188 456.938 219.214 455.872L219.185 455.466L219.619 455.467L221.6 457.06L221.602 454.135L222.125 454.136L222.118 457.807L221.706 457.837L219.678 456.215C219.61 457.412 218.966 458.025 218.047 458.02Z" fill="#FAFAFA"/>
<path d="M149.437 216.072C145.971 220.517 141.265 223.835 135.913 225.606C130.562 227.376 124.805 227.52 119.372 226.019C113.939 224.518 109.072 221.44 105.388 217.174C101.704 212.907 99.3682 207.644 98.6754 202.05C97.9825 196.456 98.964 190.782 101.496 185.745C104.028 180.709 107.996 176.537 112.899 173.755C117.802 170.974 123.42 169.71 129.041 170.121C134.663 170.533 140.037 172.602 144.483 176.067L144.539 176.113C150.487 180.763 154.344 187.585 155.263 195.078C156.181 202.572 154.086 210.123 149.437 216.072Z" fill="#EBEBEB"/>
<path d="M144.102 211.887C141.463 215.277 137.879 217.808 133.802 219.16C129.725 220.513 125.339 220.626 121.197 219.486C117.056 218.345 113.346 216.002 110.536 212.753C107.727 209.504 105.943 205.495 105.412 201.232C104.881 196.97 105.626 192.646 107.553 188.807C109.479 184.967 112.501 181.786 116.236 179.664C119.97 177.542 124.25 176.576 128.535 176.886C132.819 177.197 136.915 178.771 140.304 181.41L140.342 181.411C144.878 184.949 147.822 190.145 148.527 195.854C149.232 201.564 147.641 207.319 144.102 211.855L144.102 211.887Z" fill="#F5F5F5"/>
<path d="M144.514 211.35C144.408 211.271 144.922 210.469 145.676 208.94C146.735 206.805 147.454 204.517 147.807 202.159C148.33 198.683 147.994 195.132 146.828 191.815C146.136 189.881 145.178 188.053 143.981 186.384C143.346 185.504 142.641 184.675 141.875 183.906C140.3 182.317 138.482 180.987 136.489 179.968C134.588 178.988 132.55 178.298 130.444 177.923C129.452 177.747 128.449 177.644 127.443 177.614C125.576 177.547 123.709 177.718 121.886 178.123C120.297 178.496 118.754 179.041 117.283 179.748C115.144 180.795 113.182 182.169 111.467 183.82C110.238 184.994 109.624 185.73 109.517 185.683C109.41 185.636 109.875 184.757 110.993 183.408C112.608 181.518 114.561 179.945 116.752 178.77C119.372 177.353 122.252 176.482 125.218 176.21C128.185 175.939 131.175 176.272 134.009 177.19C135.124 177.553 136.209 178.003 137.253 178.536C138.327 179.088 139.356 179.721 140.333 180.431C141.301 181.152 142.214 181.944 143.064 182.801C143.885 183.64 144.639 184.541 145.318 185.498C147.035 187.923 148.245 190.669 148.874 193.573C149.503 196.477 149.539 199.478 148.979 202.395C148.515 204.844 147.599 207.185 146.278 209.297C145.292 210.731 144.596 211.409 144.514 211.35Z" fill="#E0E0E0"/>
<path d="M114.273 202.757L128.627 187.732L129.127 188.21L124.746 210.846L125.247 211.324L139.601 196.299M120.837 189.869L136.864 205.18M117.009 193.876L133.037 209.187" stroke="#E0E0E0" stroke-width="2.46277"/>
<path d="M318.698 300.89C315.69 304.747 311.607 307.627 306.963 309.163C302.319 310.7 297.324 310.825 292.609 309.522C287.894 308.22 283.672 305.549 280.475 301.847C277.278 298.145 275.251 293.578 274.65 288.723C274.049 283.869 274.9 278.946 277.097 274.575C279.294 270.205 282.738 266.585 286.992 264.171C291.247 261.758 296.122 260.661 301 261.018C305.878 261.375 310.541 263.171 314.399 266.178L314.449 266.218C319.609 270.253 322.955 276.172 323.752 282.674C324.549 289.176 322.731 295.728 318.698 300.89Z" fill="#EBEBEB"/>
<path d="M314.068 297.262C311.774 300.199 308.661 302.391 305.122 303.559C301.583 304.727 297.777 304.82 294.186 303.825C290.594 302.831 287.378 300.793 284.944 297.971C282.51 295.149 280.968 291.668 280.512 287.969C280.056 284.27 280.708 280.519 282.384 277.191C284.06 273.862 286.685 271.105 289.928 269.268C293.171 267.431 296.885 266.597 300.602 266.872C304.319 267.146 307.871 268.516 310.809 270.809L310.84 270.81C312.791 272.333 314.422 274.227 315.641 276.381C316.859 278.536 317.64 280.91 317.94 283.366C318.24 285.823 318.052 288.315 317.388 290.7C316.723 293.084 315.595 295.314 314.068 297.262Z" fill="#F5F5F5"/>
<path d="M314.428 296.793C314.334 296.721 314.783 296.025 315.43 294.698C316.349 292.845 316.973 290.859 317.28 288.813C317.485 287.412 317.534 285.993 317.427 284.581C317.3 282.964 316.965 281.37 316.429 279.84C316.144 279.014 315.797 278.211 315.389 277.438C314.975 276.628 314.497 275.851 313.96 275.116C313.407 274.353 312.796 273.633 312.133 272.963C311.443 272.281 310.707 271.646 309.931 271.063C309.146 270.493 308.32 269.982 307.461 269.531C305.812 268.681 304.044 268.085 302.216 267.765C301.355 267.612 300.483 267.522 299.609 267.496C296.561 267.389 293.535 268.035 290.796 269.375C288.938 270.283 287.231 271.474 285.737 272.904C284.671 273.923 284.135 274.559 284.048 274.487C283.96 274.415 284.358 273.687 285.326 272.52C286.726 270.869 288.422 269.495 290.327 268.468C291.646 267.748 293.047 267.188 294.499 266.801C296.176 266.358 297.905 266.145 299.639 266.167C300.577 266.175 301.513 266.255 302.438 266.409C303.408 266.567 304.364 266.801 305.296 267.11C308.27 268.073 310.966 269.742 313.154 271.975C313.864 272.705 314.518 273.487 315.11 274.315C315.679 275.114 316.183 275.957 316.618 276.836C317.039 277.664 317.398 278.522 317.691 279.404C318.231 281.057 318.545 282.776 318.624 284.513C318.69 286.015 318.577 287.52 318.287 288.995C317.877 291.121 317.074 293.151 315.919 294.982C315.095 296.255 314.491 296.839 314.428 296.793Z" fill="#E0E0E0"/>
<path d="M287.546 292.739L297.706 274.612L298.31 274.951L299.704 297.965L300.308 298.304L310.468 280.177M290.694 278.622L310.029 289.46M287.985 283.456L307.32 294.293" stroke="#E0E0E0" stroke-width="2.46277"/>
<path d="M173.075 127.61C172.425 130.756 170.857 133.64 168.568 135.895C166.28 138.15 163.374 139.676 160.218 140.279C157.063 140.883 153.799 140.537 150.84 139.286C147.881 138.034 145.359 135.934 143.594 133.249C141.829 130.564 140.899 127.417 140.923 124.204C140.947 120.991 141.923 117.858 143.728 115.2C145.533 112.542 148.085 110.478 151.063 109.271C154.04 108.064 157.309 107.767 160.455 108.417L160.493 108.418C162.58 108.852 164.56 109.692 166.322 110.892C168.083 112.091 169.591 113.626 170.759 115.408C171.928 117.19 172.734 119.185 173.131 121.279C173.528 123.372 173.509 125.524 173.075 127.61Z" fill="#EBEBEB"/>
<path d="M169.29 126.818C168.794 129.216 167.598 131.412 165.854 133.13C164.11 134.848 161.895 136.01 159.49 136.47C157.086 136.929 154.599 136.665 152.344 135.711C150.089 134.757 148.168 133.155 146.823 131.109C145.479 129.063 144.771 126.665 144.79 124.216C144.809 121.768 145.553 119.381 146.929 117.355C148.304 115.33 150.25 113.758 152.519 112.839C154.788 111.919 157.279 111.693 159.676 112.189C162.885 112.857 165.697 114.772 167.493 117.513C169.29 120.254 169.925 123.596 169.258 126.805L169.29 126.818Z" fill="#F5F5F5"/>
<path d="M169.368 126.438C169.306 125.932 169.3 125.42 169.352 124.912C169.354 123.554 169.144 122.204 168.731 120.91C168.447 120.014 168.063 119.152 167.587 118.341C167.043 117.426 166.382 116.586 165.622 115.841C164.786 115.017 163.833 114.321 162.794 113.774C162.247 113.486 161.678 113.24 161.094 113.036C160.491 112.832 159.874 112.671 159.248 112.555C158.619 112.45 157.983 112.388 157.344 112.372C156.725 112.364 156.106 112.401 155.491 112.482C154.899 112.562 154.314 112.687 153.74 112.856C153.189 113.014 152.651 113.214 152.131 113.455C150.299 114.29 148.702 115.565 147.48 117.165C146.637 118.237 145.966 119.434 145.492 120.713C145.365 121.206 145.186 121.684 144.957 122.138C144.906 121.62 144.968 121.096 145.138 120.603C145.488 119.225 146.089 117.924 146.911 116.764C148.134 115.017 149.793 113.619 151.722 112.708C152.279 112.44 152.856 112.215 153.448 112.035C154.062 111.845 154.69 111.702 155.327 111.607C155.998 111.508 156.675 111.458 157.353 111.456C158.04 111.47 158.725 111.534 159.402 111.649C160.078 111.772 160.744 111.947 161.394 112.171C162.024 112.394 162.637 112.665 163.226 112.982C163.795 113.287 164.338 113.637 164.849 114.03C165.342 114.399 165.805 114.808 166.233 115.251C167.029 116.064 167.711 116.98 168.263 117.974C168.734 118.843 169.106 119.763 169.371 120.715C169.746 122.085 169.862 123.513 169.714 124.926C169.702 125.448 169.584 125.963 169.368 126.438Z" fill="#E0E0E0"/>
<path d="M150.924 129.739L154.782 118.786L155.147 118.914L158.118 131.452L158.483 131.581L162.341 120.628M151.305 121.665L162.988 125.781M150.276 124.586L161.959 128.702" stroke="#E0E0E0" stroke-width="1.37631"/>
<path d="M197.634 146.94C197.634 146.94 198.834 118.472 175.601 103.47L250.278 105.166C250.278 105.166 271.235 122.952 270.831 148.603L197.634 146.94Z" fill="#EBEBEB"/>
<path d="M244.347 115.423C244.345 115.518 235.813 115.4 225.275 115.161C214.737 114.922 206.209 114.652 206.211 114.556C206.213 114.461 214.744 114.585 225.283 114.824C235.821 115.064 244.349 115.334 244.347 115.423Z" fill="#455A64"/>
<path d="M252.378 120.763C252.376 120.852 241.074 120.671 227.135 120.354C213.196 120.038 201.897 119.705 201.899 119.616C201.901 119.527 213.204 119.701 227.142 120.018C241.081 120.334 252.381 120.667 252.378 120.763Z" fill="#263238"/>
<path d="M256.328 133.889C256.326 133.978 245.024 133.797 231.085 133.481C217.146 133.164 205.84 132.831 205.842 132.742C205.844 132.653 217.147 132.834 231.092 133.15C245.037 133.467 256.33 133.8 256.328 133.889Z" fill="#263238"/>
<path d="M230.112 126.19C229.77 126.234 229.425 126.25 229.081 126.236L226.258 126.223C223.873 126.201 220.587 126.145 216.951 126.063C213.315 125.98 210.029 125.905 207.647 125.801L204.826 125.686C204.481 125.683 204.138 125.652 203.798 125.592C204.14 125.55 204.485 125.537 204.829 125.552L207.652 125.565C210.036 125.619 213.323 125.643 216.959 125.726C220.594 125.808 223.881 125.883 226.263 125.988L229.084 126.103C229.428 126.103 229.772 126.133 230.112 126.19Z" fill="#263238"/>
<path d="M252.244 126.693C251.992 126.739 251.735 126.757 251.48 126.745L249.394 126.749C247.639 126.741 245.204 126.704 242.522 126.644C239.839 126.583 237.405 126.527 235.652 126.437L233.568 126.338C233.312 126.338 233.057 126.309 232.807 126.251C233.06 126.211 233.316 126.195 233.571 126.205L235.657 126.201C237.411 126.241 239.847 126.246 242.529 126.307C245.211 126.368 247.614 126.422 249.399 126.514L251.483 126.612C251.739 126.61 251.994 126.637 252.244 126.693Z" fill="#263238"/>
<path d="M234.477 140.381C234.133 140.426 233.786 140.441 233.439 140.428L230.622 140.415C228.239 140.361 224.945 140.337 221.316 140.254C217.686 140.172 214.388 140.097 212.005 139.992L209.191 139.877C208.844 139.875 208.498 139.843 208.156 139.784C208.5 139.742 208.847 139.728 209.194 139.744L212.011 139.757C214.394 139.811 217.688 139.835 221.323 139.917C224.959 140 228.245 140.075 230.627 140.18L233.442 140.294C233.789 140.295 234.135 140.324 234.477 140.381Z" fill="#263238"/>
<path d="M256.608 140.884C256.356 140.93 256.1 140.948 255.844 140.937L253.758 140.94C251.997 140.9 249.568 140.896 246.886 140.835C244.204 140.774 241.801 140.719 240.01 140.628L237.926 140.53C237.67 140.529 237.415 140.5 237.165 140.442C237.418 140.402 237.674 140.386 237.929 140.396L240.015 140.393C241.776 140.433 244.205 140.437 246.894 140.498C249.582 140.559 251.979 140.613 253.763 140.705L255.847 140.803C256.103 140.805 256.358 140.832 256.608 140.884Z" fill="#263238"/>
<path d="M182.385 145.786L292.561 148.289L294.226 339.297C294.237 340.579 293.996 341.85 293.516 343.038C293.036 344.227 292.327 345.309 291.428 346.223C290.53 347.137 289.46 347.865 288.28 348.365C287.101 348.865 285.834 349.128 284.552 349.138L169.679 346.529C168.061 346.493 166.518 345.835 165.371 344.693C164.224 343.55 163.56 342.011 163.516 340.392L160.67 232.492C160.67 232.492 128.263 219.89 129.638 183.717C129.638 183.717 132.013 144.642 182.385 145.786Z" fill="#263238"/>
<path d="M183.809 346.564L183.561 145.813L296.559 148.38L294.234 340.627C294.253 342.865 293.383 345.02 291.814 346.617C290.246 348.214 288.107 349.122 285.869 349.143L285.576 349.136L183.809 346.564Z" fill="#455A64"/>
<path d="M192.634 157.65L192.801 251.124L284.83 253.214L285.712 159.765L192.634 157.65Z" fill="#263238"/>
<path d="M202.542 169.971C207.008 171.287 212.696 170.901 217.315 170.783C217.652 170.791 217.979 170.664 218.223 170.431C218.466 170.198 218.608 169.878 218.615 169.541C218.623 169.204 218.496 168.877 218.263 168.634C218.03 168.39 217.71 168.249 217.373 168.241C212.764 167.907 207.093 167.263 202.578 168.382C202.362 168.44 202.177 168.582 202.066 168.776C201.954 168.971 201.924 169.201 201.982 169.418C202.02 169.554 202.091 169.678 202.188 169.78C202.286 169.882 202.407 169.959 202.541 170.003L202.542 169.971Z" fill="#E0E0E0"/>
<path d="M225.186 170.301C229.572 171.526 235.278 171.452 239.794 171.122C240.131 171.13 240.458 171.003 240.701 170.77C240.945 170.537 241.087 170.217 241.094 169.88C241.102 169.543 240.975 169.216 240.742 168.973C240.509 168.729 240.189 168.587 239.852 168.58C235.355 168.039 229.658 167.712 225.222 168.737C225.118 168.766 225.021 168.815 224.936 168.882C224.851 168.948 224.78 169.031 224.727 169.125C224.674 169.218 224.641 169.322 224.628 169.429C224.615 169.536 224.623 169.644 224.652 169.748C224.688 169.878 224.755 169.998 224.848 170.095C224.942 170.193 225.058 170.266 225.186 170.307L225.186 170.301Z" fill="#E0E0E0"/>
<path d="M247.531 170.408C249.734 171.132 252.133 171.072 254.433 171.162C256.779 171.356 259.137 171.365 261.484 171.189C262.639 171.05 262.684 169.048 261.537 168.863C259.2 168.575 256.844 168.475 254.492 168.563C252.19 168.549 249.796 168.38 247.563 169.003C247.409 169.044 247.273 169.133 247.175 169.257C247.077 169.382 247.022 169.535 247.018 169.693C247.015 169.852 247.063 170.007 247.155 170.136C247.248 170.265 247.379 170.36 247.531 170.408Z" fill="#E0E0E0"/>
<path d="M268.223 171.005C269.891 171.286 271.576 171.454 273.267 171.507C274.944 171.584 276.75 171.898 278.387 171.471C278.617 171.407 278.821 171.271 278.968 171.082C279.114 170.894 279.196 170.663 279.202 170.424C279.207 170.186 279.136 169.951 278.998 169.756C278.86 169.562 278.663 169.416 278.436 169.342C276.819 168.841 275.001 169.073 273.323 169.073C271.631 169.048 269.939 169.142 268.261 169.352C268.083 169.403 267.925 169.509 267.812 169.655C267.699 169.801 267.636 169.98 267.631 170.165C267.627 170.35 267.682 170.531 267.789 170.682C267.895 170.834 268.048 170.947 268.223 171.005Z" fill="#E0E0E0"/>
<path d="M219.25 262.841L192.58 262.235L192.147 281.297L218.817 281.902L219.25 262.841Z" fill="#5F8EFF"/>
<path d="M197.404 262.344L192.58 262.235L192.147 281.297L196.971 281.406L197.404 262.344Z" fill="#263238"/>
<path d="M251.907 263.582L225.237 262.977L224.804 282.038L251.474 282.644L251.907 263.582Z" fill="#5F8EFF"/>
<path d="M229.788 263.08L224.964 262.97L224.531 282.032L229.355 282.142L229.788 263.08Z" fill="#263238"/>
<path d="M284.571 264.324L257.901 263.719L257.468 282.78L284.138 283.386L284.571 264.324Z" fill="#5F8EFF"/>
<path d="M261.962 263.811L257.138 263.701L256.705 282.763L261.529 282.873L261.962 263.811Z" fill="#263238"/>
<path d="M283.995 289.685L257.325 289.079L256.892 308.141L283.562 308.747L283.995 289.685Z" fill="#5F8EFF"/>
<path d="M262.295 289.192L257.325 289.079L256.892 308.141L261.862 308.254L262.295 289.192Z" fill="#263238"/>
<path d="M218.674 288.201L192.004 287.595L191.571 306.657L218.241 307.263L218.674 288.201Z" fill="#5F8EFF"/>
<path d="M196.829 287.667L192.005 287.557L191.572 306.619L196.396 306.729L196.829 287.667Z" fill="#263238"/>
<path d="M218.104 313.308L191.434 312.702L191.001 331.764L217.671 332.369L218.104 313.308Z" fill="#5F8EFF"/>
<path opacity="0.3" d="M218.104 313.308L191.434 312.702L191.001 331.764L217.671 332.369L218.104 313.308Z" fill="black"/>
<path d="M196.258 312.811L191.434 312.702L191.001 331.764L195.825 331.873L196.258 312.811Z" fill="#263238"/>
<path d="M251.185 288.94L224.515 288.334L224.082 307.396L250.752 308.002L251.185 288.94Z" fill="#5F8EFF"/>
<path d="M229.34 288.405L224.516 288.296L224.083 307.358L228.907 307.467L229.34 288.405Z" fill="#263238"/>
<path d="M250.761 314.049L224.091 313.444L223.658 332.505L250.328 333.111L250.761 314.049Z" fill="#5F8EFF"/>
<path opacity="0.3" d="M250.761 314.049L224.091 313.444L223.658 332.505L250.328 333.111L250.761 314.049Z" fill="black"/>
<path d="M228.915 313.553L224.091 313.444L223.658 332.505L228.482 332.615L228.915 313.553Z" fill="#263238"/>
<path d="M283.425 314.791L256.755 314.186L256.322 333.247L282.992 333.853L283.425 314.791Z" fill="#E0E0E0"/>
<path d="M261.579 314.295L256.755 314.186L256.322 333.247L261.146 333.357L261.579 314.295Z" fill="#263238"/>
<path d="M174.999 346.656C174.542 346.646 173.891 301.645 173.543 246.146C173.195 190.646 173.283 145.605 173.741 145.603C174.199 145.6 174.849 190.601 175.197 246.113C175.545 301.625 175.457 346.654 174.999 346.656Z" fill="#455A64"/>
<path d="M284.932 242.571L284.854 245.997L295.345 248.861L295.408 243.578L284.932 242.571Z" fill="#455A64"/>
<path d="M163.306 332.324L174.889 328.542L174.756 323.496L163.585 327.045L163.306 332.324Z" fill="#263238"/>
<path d="M311.522 189.305C311.52 189.394 311.162 189.443 310.718 189.414C310.273 189.385 309.932 189.288 309.941 189.193C309.949 189.097 310.306 189.055 310.744 189.084C311.183 189.113 311.53 189.21 311.522 189.305Z" fill="#263238"/>
<path d="M317.75 189.179C317.257 189.373 316.728 189.459 316.199 189.43C315.676 189.515 315.142 189.488 314.63 189.35C315.647 189.074 316.71 189.016 317.75 189.179Z" fill="#263238"/>
<path d="M323.941 188.22C323.477 188.476 322.964 188.631 322.436 188.675C321.927 188.823 321.394 188.868 320.868 188.805C321.841 188.401 322.888 188.208 323.94 188.239L323.941 188.22Z" fill="#263238"/>
<path d="M329.927 186.454C329.502 186.768 329.016 186.989 328.5 187.102C328.018 187.321 327.496 187.435 326.966 187.436C327.39 187.121 327.876 186.9 328.393 186.788C328.877 186.576 329.398 186.462 329.927 186.454Z" fill="#263238"/>
<path d="M335.625 183.894C334.796 184.542 333.841 185.012 332.821 185.274C333.203 184.907 333.655 184.621 334.151 184.433C334.6 184.153 335.102 183.969 335.625 183.894Z" fill="#263238"/>
<path d="M340.897 180.548C340.953 180.619 340.421 181.077 339.704 181.57C339.301 181.913 338.832 182.169 338.326 182.321C338.277 182.243 338.808 181.785 339.519 181.292C340.23 180.8 340.841 180.47 340.897 180.548Z" fill="#263238"/>
<path d="M345.582 176.419C345.651 176.484 345.193 177.046 344.569 177.617C343.946 178.188 343.382 178.645 343.327 178.574C343.271 178.503 343.716 177.947 344.34 177.376C344.963 176.805 345.514 176.335 345.582 176.419Z" fill="#263238"/>
<path d="M349.489 171.553C349.571 171.6 349.214 172.183 348.702 172.909C348.189 173.635 347.713 174.159 347.645 174.074C347.814 173.572 348.082 173.109 348.433 172.712C348.944 172.024 349.414 171.501 349.489 171.553Z" fill="#263238"/>
<path d="M352.413 166.036C352.173 167.064 351.718 168.029 351.076 168.868C351.302 167.835 351.759 166.867 352.413 166.036Z" fill="#263238"/>
<path d="M354.202 160.061C354.237 160.588 354.162 161.117 353.982 161.614C353.908 162.139 353.723 162.642 353.44 163.09C353.476 162.038 353.735 161.005 354.202 160.061Z" fill="#263238"/>
<path d="M354.979 153.866C355.116 154.91 355.024 155.971 354.711 156.976C354.593 156.462 354.584 155.929 354.683 155.411C354.676 154.881 354.777 154.356 354.979 153.866Z" fill="#263238"/>
<path d="M354.809 147.63C355.101 148.641 355.17 149.704 355.011 150.744C354.819 150.252 354.729 149.727 354.747 149.199C354.663 148.677 354.683 148.144 354.809 147.63Z" fill="#263238"/>
<path d="M353.683 141.487C353.952 141.942 354.124 142.448 354.189 142.973C354.357 143.476 354.419 144.008 354.37 144.536C354.101 144.08 353.929 143.574 353.863 143.049C353.699 142.545 353.637 142.014 353.683 141.487Z" fill="#263238"/>
<path d="M351.552 135.619C351.895 136.022 352.151 136.491 352.303 136.997C352.558 137.463 352.709 137.979 352.746 138.508C352.405 138.102 352.15 137.631 351.995 137.124C351.746 136.658 351.595 136.146 351.552 135.619Z" fill="#263238"/>
<path d="M348.341 130.262C348.412 130.206 348.858 130.744 349.344 131.467C349.679 131.876 349.926 132.349 350.069 132.858C349.992 132.907 349.54 132.362 349.066 131.652C348.731 131.244 348.484 130.77 348.341 130.262Z" fill="#263238"/>
<path d="M344.115 125.689C344.173 125.62 344.743 126.015 345.365 126.62C345.987 127.226 346.407 127.795 346.342 127.857C346.277 127.919 345.753 127.456 345.137 126.857C344.521 126.258 344.056 125.757 344.115 125.689Z" fill="#263238"/>
<path d="M340.292 122.918C340.338 122.843 340.679 122.972 341.048 123.209C341.418 123.446 341.673 123.7 341.627 123.775C341.581 123.851 341.234 123.722 340.87 123.491C340.507 123.26 340.239 123 340.292 122.918Z" fill="#263238"/>
<path d="M322.698 138.226C334.857 138.502 344.939 128.869 345.215 116.709C345.491 104.549 335.858 94.4677 323.698 94.1915C311.538 93.9153 301.457 103.549 301.18 115.709C300.904 127.869 310.538 137.95 322.698 138.226Z" fill="#5F8EFF"/>
<path d="M310.138 117.521L313.622 114.192L320.061 120.182L333.246 108.062L336.334 111.541L319.429 126.743L310.138 117.521Z" fill="#FAFAFA"/>
<path d="M134.589 467.149L118.954 467.713L118.205 436.111L109.471 440.198L124.76 400L142.902 438.949L133.88 435.496L134.589 467.149ZM119.637 466.99L133.871 466.47L133.122 434.52L141.495 437.731L124.809 401.833L110.749 438.821L118.859 435.041L119.637 466.99Z" fill="#263238"/>
<path d="M363.456 493.282L346.859 493.881L346.065 460.334L336.793 464.672L353.022 422L372.281 463.347L362.704 459.681L363.456 493.282ZM347.584 493.113L362.694 492.561L361.9 458.645L370.788 462.053L353.075 423.946L338.15 463.21L346.759 459.198L347.584 493.113Z" fill="#263238"/>
</svg>
