<svg width="162" height="37" viewBox="0 0 162 37" fill="none" xmlns="http://www.w3.org/2000/svg">
<path fill-rule="evenodd" clip-rule="evenodd" d="M18.0225 27.2565C12.96 27.2565 8.829 23.1255 8.829 18.0225C8.829 12.9195 12.96 8.7885 18.0225 8.7885C20.574 8.7885 22.8825 9.8415 24.543 11.502L30.78 5.265C27.54 1.9845 23.004 0 18.0225 0C8.0595 0 0 8.0595 0 18.0225C0 27.9855 8.0595 36.045 18.0225 36.045C26.2845 36.045 33.291 30.4965 35.397 22.923L24.2595 11.7855L18.0225 18.0225L24.543 24.543C22.8825 26.2035 20.574 27.2565 18.0225 27.2565Z" fill="#0037BA"/>
<path d="M42.2819 18.144C42.1604 23.7735 46.6964 28.188 52.5689 28.107C54.3104 28.107 55.9304 27.783 57.4694 27.1755C59.0489 26.568 60.2234 25.7985 60.9929 24.867V16.929H52.2044V20.331H57.2264V23.004C56.2949 23.8545 54.5129 24.381 52.5689 24.381C48.8834 24.381 46.3724 21.6675 46.3724 18.144C46.3724 14.6205 48.7214 11.9475 52.2854 11.9475C54.5534 11.9475 56.3354 12.9195 57.3479 14.58L60.8309 12.5955C59.2109 9.9225 56.1329 8.181 52.2854 8.181C46.5749 8.1 42.2009 12.555 42.2819 18.144Z" fill="black"/>
<path d="M78.003 22.032C78.0435 21.5865 78.084 21.06 78.084 20.412C78.084 16.2 74.9655 13.3245 70.794 13.3245C66.5415 13.3245 63.504 16.524 63.504 20.6955C63.504 24.948 66.663 28.107 71.2395 28.107C73.953 28.107 76.464 26.892 77.679 25.029L74.6415 23.1255C73.9935 24.138 72.6975 24.7455 71.2395 24.7455C69.2955 24.7455 67.797 23.814 67.311 22.032H78.003ZM67.311 19.3995C67.7565 17.577 69.174 16.5645 70.8345 16.5645C72.6975 16.5645 74.0745 17.739 74.277 19.3995H67.311Z" fill="black"/>
<path d="M90.4364 24.138C89.8694 24.462 89.1809 24.5835 88.3709 24.5835C86.9939 24.5835 86.2649 23.814 86.2649 22.2345V17.172H90.7199V13.689H86.2649V10.0035H82.3364V13.689H79.4609V17.172H82.3364V22.275C82.3364 26.1225 84.2399 28.107 87.7634 28.107C89.0999 28.107 90.4364 27.7425 91.2464 27.2565L90.4364 24.138Z" fill="black"/>
<path d="M102.87 13.689C102.465 13.527 101.939 13.446 101.25 13.446C99.549 13.446 98.091 14.418 97.443 15.9165V13.689H93.5145V27.7425H97.443V20.736C97.443 18.549 98.982 17.091 101.169 17.091C101.898 17.091 102.465 17.172 102.87 17.2935V13.689Z" fill="black"/>
<path d="M104.652 9.801C104.652 11.0565 105.705 12.069 107.082 12.069C108.459 12.069 109.512 11.0565 109.512 9.801C109.512 8.505 108.459 7.533 107.082 7.533C105.705 7.533 104.652 8.505 104.652 9.801ZM109.066 13.689H105.097V27.7425H109.066V13.689Z" fill="black"/>
<path d="M127.494 15.2685C127.494 11.2995 124.456 8.5455 119.313 8.5455H112.428V27.7425H116.478V21.951H119.313C124.456 21.951 127.494 19.1565 127.494 15.2685ZM123.444 15.2685C123.444 17.2935 122.067 18.306 119.313 18.306H116.478V12.1905H119.313C122.067 12.1905 123.444 13.203 123.444 15.2685Z" fill="black"/>
<path d="M140.211 13.689V15.552C139.279 14.1345 137.7 13.3245 135.837 13.3245C131.868 13.3245 129.033 16.5645 129.033 20.6955C129.033 24.867 131.868 28.107 135.837 28.107C137.7 28.107 139.279 27.3375 140.211 25.8795V27.7425H144.139V13.689H140.211ZM140.17 20.6955C140.17 21.87 139.846 22.8015 139.158 23.571C138.429 24.3 137.578 24.6645 136.485 24.6645C134.298 24.6645 132.799 23.004 132.799 20.6955C132.799 19.602 133.123 18.6705 133.812 17.901C134.5 17.172 135.391 16.767 136.485 16.767C137.578 16.767 138.429 17.1315 139.158 17.8605C139.846 18.5895 140.17 19.521 140.17 20.6955Z" fill="black"/>
<path d="M157.869 13.689L154.183 22.923L150.336 13.689H146.083L152.28 27.702L152.199 27.9045C151.551 29.484 150.7 30.0915 149.283 30.0915C148.513 30.0915 147.784 29.97 147.096 29.6865L146.286 32.8455C147.136 33.291 148.473 33.615 149.607 33.615C152.239 33.615 154.264 32.1165 156.046 27.945L162 13.689H157.869Z" fill="black"/>
</svg>
