<svg width="26" height="26" viewBox="0 0 26 26" fill="none" xmlns="http://www.w3.org/2000/svg">
<g clip-path="url(#clip0_188_531)">
<path d="M8.04383 13.2722C8.04383 12.9522 8.17095 12.6453 8.39722 12.419C8.6235 12.1927 8.93039 12.0656 9.25039 12.0656H15.6854C16.0054 12.0656 16.3123 12.1927 16.5386 12.419C16.7648 12.6453 16.892 12.9522 16.892 13.2722C16.892 13.5922 16.7648 13.8991 16.5386 14.1253C16.3123 14.3516 16.0054 14.4787 15.6854 14.4787H9.25039C8.93039 14.4787 8.6235 14.3516 8.39722 14.1253C8.17095 13.8991 8.04383 13.5922 8.04383 13.2722ZM6.43508 16.8919C6.11508 16.8919 5.80818 17.019 5.58191 17.2453C5.35564 17.4715 5.22852 17.7784 5.22852 18.0984C5.22852 18.4184 5.35564 18.7253 5.58191 18.9516C5.80818 19.1779 6.11508 19.305 6.43508 19.305H12.8701C13.1901 19.305 13.497 19.1779 13.7232 18.9516C13.9495 18.7253 14.0766 18.4184 14.0766 18.0984C14.0766 17.7784 13.9495 17.4715 13.7232 17.2453C13.497 17.019 13.1901 16.8919 12.8701 16.8919H6.43508Z" fill="#DD3A23"/>
<path d="M20.9137 -0.00805664C23.5746 -0.00805664 25.74 2.12836 25.74 4.81819C25.74 6.39799 25.1962 7.92791 24.4803 9.35165C23.7677 10.7657 22.8265 12.1798 21.9353 13.5151L21.9176 13.5424C21.0038 14.9147 20.1415 16.2114 19.5029 17.4774C18.8626 18.7468 18.5006 19.8809 18.5006 20.9137C18.5008 21.3306 18.6089 21.7404 18.8145 22.103C19.0202 22.4657 19.3162 22.7689 19.6739 22.9831C20.0315 23.1973 20.4386 23.3152 20.8553 23.3253C21.2721 23.3353 21.6844 23.2373 22.052 23.0407C22.4196 22.844 22.73 22.5555 22.9529 22.2032C23.1758 21.8509 23.3037 21.4469 23.324 21.0305C23.3443 20.6141 23.2564 20.1996 23.0689 19.8272C22.8813 19.4549 22.6005 19.1375 22.2538 18.906C21.9982 18.7239 21.8236 18.4493 21.7672 18.1405C21.7107 17.8317 21.7768 17.5131 21.9514 17.2523C22.1259 16.9914 22.3953 16.8089 22.7023 16.7434C23.0093 16.6779 23.3297 16.7346 23.5955 16.9015C24.4562 17.4769 25.109 18.3137 25.4576 19.2885C25.8062 20.2633 25.8321 21.3244 25.5316 22.315C25.231 23.3057 24.6198 24.1734 23.7883 24.7902C22.9568 25.4069 21.949 25.7399 20.9137 25.74H4.82624C3.54624 25.74 2.31867 25.2315 1.41357 24.3264C0.508473 23.4213 -5.89197e-06 22.1937 -5.89197e-06 20.9137C-5.89197e-06 18.3687 1.43339 15.8703 2.85874 13.6647C3.19497 13.1467 3.5312 12.6399 3.86099 12.1428C4.62193 11.0022 5.34587 9.91311 5.93146 8.84811H4.03796C3.11132 8.84811 1.81627 8.63415 0.97007 7.58846C0.33266 6.80692 -0.0106037 5.82665 -5.89197e-06 4.81819C-5.89197e-06 3.53819 0.508473 2.31062 1.41357 1.40552C2.31867 0.500422 3.54624 -0.00805664 4.82624 -0.00805664H20.9137ZM20.9137 2.40507C20.2737 2.40507 19.66 2.65931 19.2074 3.11186C18.7549 3.5644 18.5006 4.17819 18.5006 4.81819C18.5006 5.58396 18.8594 6.15989 19.5737 6.6393C19.7885 6.78329 19.9514 6.9925 20.0383 7.23608C20.1252 7.47966 20.1315 7.74473 20.0564 7.99219C19.9812 8.23965 19.8285 8.45641 19.6208 8.61051C19.4131 8.76462 19.1614 8.84791 18.9028 8.84811H8.63576C7.88448 10.4617 6.80018 12.0897 5.78345 13.6148C5.47457 14.0798 5.17052 14.5334 4.88577 14.9742C3.42663 17.2313 2.41312 19.1699 2.41312 20.9137C2.41312 21.5537 2.66736 22.1675 3.11991 22.6201C3.57246 23.0726 4.18624 23.3269 4.82624 23.3269H16.7326C16.3088 22.5934 16.0862 21.7609 16.0875 20.9137C16.0875 19.3388 16.6313 17.8121 17.3488 16.3899C18.0582 14.9839 18.9945 13.5778 19.8825 12.2458L19.9099 12.204C20.8237 10.8317 21.6843 9.53666 22.3246 8.26575C22.9649 6.99483 23.3269 5.85745 23.3269 4.81819C23.3269 3.47006 22.2506 2.40507 20.9137 2.40507ZM4.82624 2.40507C4.18624 2.40507 3.57246 2.65931 3.11991 3.11186C2.66736 3.5644 2.41312 4.17819 2.41312 4.81819C2.41312 5.3346 2.57399 5.73357 2.84748 6.0698C3.00353 6.26285 3.37033 6.43499 4.03796 6.43499H16.3835C16.1842 5.91941 16.0838 5.37093 16.0875 4.81819C16.0875 3.93982 16.3224 3.11453 16.7326 2.40507H4.82624Z" fill="#DD3A23"/>
</g>
<defs>
<clipPath id="clip0_188_531">
<rect width="25.74" height="25.74" fill="white"/>
</clipPath>
</defs>
</svg>
