<svg width="355" height="349" viewBox="0 0 355 349" fill="none" xmlns="http://www.w3.org/2000/svg">
<path d="M94.9467 87.8418L57.1685 76.4296C55.7023 75.9867 54.1548 76.8162 53.7119 78.2824L46.9925 100.526C46.5496 101.992 47.3791 103.539 48.8453 103.982L86.6235 115.395C88.0896 115.837 89.6372 115.008 90.0801 113.542L96.7995 91.2984C97.2424 89.8323 96.4128 88.2847 94.9467 87.8418Z" stroke="#263238" stroke-width="0.584984" stroke-miterlimit="10"/>
<path d="M52.3789 81.7176L95.3237 94.7326" stroke="#263238" stroke-width="0.583324" stroke-miterlimit="10"/>
<path d="M51.0712 86.027L94.0239 99.042" stroke="#263238" stroke-width="0.583324" stroke-miterlimit="10"/>
<path d="M80.9537 107.102C80.8444 107.464 80.8097 107.845 80.8517 108.222C80.8937 108.598 81.0115 108.962 81.198 109.292C80.5541 109.61 79.8137 109.672 79.1259 109.465C78.688 109.333 78.2892 109.095 77.9645 108.773C77.6398 108.451 77.3991 108.054 77.2636 107.617C77.128 107.18 77.1017 106.716 77.1869 106.267C77.2722 105.817 77.4663 105.396 77.7525 105.039C78.0386 104.682 78.4079 104.4 78.8281 104.219C79.2482 104.038 79.7063 103.963 80.1623 104C80.6183 104.037 81.0581 104.186 81.4433 104.433C81.8286 104.679 82.1474 105.017 82.3718 105.416C82.0349 105.588 81.7359 105.826 81.4924 106.115C81.2488 106.405 81.0657 106.74 80.9537 107.102Z" stroke="#263238" stroke-width="0.583324" stroke-miterlimit="10"/>
<path d="M86.3031 108.725C86.1418 109.254 85.8273 109.723 85.3992 110.074C84.9712 110.424 84.4488 110.64 83.8982 110.693C83.3476 110.747 82.7935 110.636 82.3059 110.374C81.8184 110.113 81.4193 109.713 81.1592 109.224C80.8991 108.736 80.7897 108.182 80.8447 107.631C80.8997 107.081 81.1167 106.559 81.4683 106.132C81.8199 105.705 82.2902 105.392 82.8199 105.232C83.3495 105.072 83.9146 105.073 84.4438 105.234C85.153 105.451 85.7474 105.94 86.096 106.595C86.4447 107.249 86.5191 108.015 86.3031 108.725Z" stroke="#263238" stroke-width="0.583324" stroke-miterlimit="10"/>
<path d="M351.721 141.535L320.484 132.068C319.022 131.625 317.478 132.451 317.035 133.913L311.56 151.978C311.117 153.439 311.943 154.983 313.405 155.426L344.642 164.893C346.103 165.336 347.647 164.51 348.09 163.048L353.565 144.983C354.008 143.522 353.182 141.978 351.721 141.535Z" stroke="#263238" stroke-width="0.583324" stroke-miterlimit="10"/>
<path d="M316.193 136.693L352.725 147.762" stroke="#263238" stroke-width="0.583324" stroke-miterlimit="10"/>
<path d="M315.082 140.364L351.606 151.433" stroke="#263238" stroke-width="0.583324" stroke-miterlimit="10"/>
<path d="M340.498 158.264C340.404 158.571 340.373 158.895 340.408 159.214C340.444 159.534 340.544 159.843 340.703 160.123C340.358 160.291 339.977 160.372 339.594 160.36C339.21 160.348 338.836 160.242 338.502 160.053C338.169 159.864 337.886 159.596 337.679 159.273C337.472 158.95 337.347 158.582 337.314 158.2C337.281 157.818 337.342 157.433 337.49 157.08C337.639 156.727 337.872 156.415 338.168 156.171C338.465 155.928 338.816 155.76 339.191 155.683C339.567 155.605 339.956 155.62 340.324 155.727C340.909 155.902 341.403 156.298 341.703 156.83C341.415 156.974 341.16 157.176 340.952 157.422C340.745 157.669 340.59 157.955 340.498 158.264Z" stroke="#263238" stroke-width="0.583324" stroke-miterlimit="10"/>
<path d="M345.044 159.666C344.904 160.111 344.636 160.505 344.274 160.798C343.911 161.091 343.47 161.27 343.005 161.313C342.541 161.356 342.075 161.26 341.664 161.039C341.254 160.817 340.919 160.479 340.7 160.067C340.482 159.655 340.39 159.188 340.436 158.724C340.483 158.26 340.665 157.82 340.961 157.46C341.257 157.099 341.653 156.834 342.099 156.699C342.545 156.563 343.021 156.562 343.468 156.696C343.767 156.786 344.046 156.934 344.288 157.133C344.529 157.331 344.729 157.575 344.876 157.852C345.023 158.128 345.113 158.431 345.142 158.742C345.17 159.053 345.137 159.367 345.044 159.666Z" stroke="#263238" stroke-width="0.583324" stroke-miterlimit="10"/>
<path d="M301.728 55.2261L256.126 76.104L266.988 99.8288L312.59 78.9509L301.728 55.2261Z" stroke="#263238" stroke-width="0.583324" stroke-miterlimit="10"/>
<path d="M308.669 75.5409L301.768 60.4697C301.123 60.764 300.388 60.7909 299.723 60.5443C299.059 60.2977 298.519 59.7977 298.223 59.154L261.36 76.0294C261.654 76.6742 261.681 77.4093 261.434 78.0738C261.188 78.7383 260.688 79.278 260.044 79.5747L266.946 94.6459C267.265 94.4994 267.611 94.4173 267.962 94.4045C268.313 94.3918 268.664 94.4485 268.993 94.5715C269.322 94.6944 269.624 94.8812 269.881 95.1211C270.138 95.361 270.346 95.6493 270.491 95.9695L307.346 79.0862C307.199 78.7666 307.117 78.4212 307.104 78.0699C307.092 77.7185 307.148 77.3681 307.271 77.0387C307.394 76.7093 307.581 76.4075 307.821 76.1504C308.061 75.8934 308.349 75.6863 308.669 75.5409Z" stroke="#263238" stroke-width="0.583324" stroke-miterlimit="10"/>
<path d="M288.534 82.9695C291.536 80.6635 292.1 76.3605 289.794 73.3585C287.488 70.3566 283.185 69.7923 280.183 72.0983C277.181 74.4043 276.617 78.7073 278.923 81.7093C281.229 84.7113 285.532 85.2755 288.534 82.9695Z" stroke="#263238" stroke-width="0.583324" stroke-miterlimit="10"/>
<path d="M286.224 80.851L286.736 81.9697L286.248 82.1903L285.743 81.0873C284.88 81.4628 283.913 81.5242 283.01 81.2606V80.5752C283.808 80.8168 284.665 80.7751 285.436 80.457L284.278 77.9044C283.081 78.1329 281.844 78.3062 281.253 77.0142C280.827 76.0846 281.127 74.9658 282.561 74.1701L282.048 73.0435L282.537 72.8229L283.073 73.9653C283.781 73.6578 284.562 73.5542 285.326 73.6659V74.3513C284.653 74.2542 283.966 74.3329 283.333 74.5798L284.514 77.1639C285.736 76.9197 287.035 76.6991 287.666 78.0069C288.06 78.9129 287.721 80.0552 286.224 80.851ZM283.971 77.219L282.852 74.7531C281.883 75.2967 281.67 76.0215 281.954 76.636C282.285 77.4081 283.073 77.3766 283.963 77.219H283.971ZM286.941 78.3299C286.594 77.542 285.759 77.6208 284.83 77.802L285.94 80.2364C287.012 79.6692 287.217 78.9523 286.933 78.3299H286.941Z" fill="#263238"/>
<path d="M50.0658 163.299L14.9993 166.455L16.6407 184.694L51.7072 181.538L50.0658 163.299Z" stroke="#263238" stroke-width="0.585682" stroke-miterlimit="10"/>
<path d="M48.8888 177.849L47.8961 166.307C47.4023 166.349 46.912 166.193 46.5326 165.874C46.1532 165.555 45.9155 165.099 45.8714 164.606L17.6354 167.048C17.6749 167.541 17.5184 168.03 17.1999 168.409C16.8814 168.788 16.4266 169.027 15.9337 169.073L16.9264 180.614C17.1711 180.593 17.4178 180.62 17.6521 180.694C17.8865 180.767 18.1039 180.887 18.292 181.045C18.4801 181.203 18.6352 181.397 18.7483 181.615C18.8614 181.833 18.9303 182.071 18.9511 182.316L47.1871 179.874C47.1477 179.38 47.3041 178.891 47.6226 178.512C47.9411 178.133 48.396 177.895 48.8888 177.849Z" stroke="#263238" stroke-width="0.583324" stroke-miterlimit="10"/>
<path d="M37.1895 173.051C37.2717 173.997 37.0716 174.945 36.6146 175.777C36.1576 176.609 35.4641 177.287 34.6219 177.724C33.7798 178.162 32.8267 178.34 31.8833 178.236C30.94 178.132 30.0487 177.75 29.3222 177.139C28.5957 176.529 28.0667 175.716 27.802 174.805C27.5374 173.893 27.549 172.924 27.8354 172.019C28.1218 171.114 28.6701 170.315 29.411 169.721C30.1519 169.128 31.0521 168.768 31.9977 168.687C32.6253 168.631 33.2576 168.701 33.8585 168.89C34.4593 169.08 35.0168 169.386 35.4991 169.792C35.9814 170.197 36.379 170.694 36.669 171.253C36.9591 171.812 37.1359 172.423 37.1895 173.051Z" stroke="#263238" stroke-width="0.583324" stroke-miterlimit="10"/>
<path d="M32.8565 176.092L32.9274 176.951H32.5571L32.4783 176.1C31.8236 176.144 31.1743 175.957 30.6427 175.572L30.816 175.131C31.2861 175.473 31.8583 175.645 32.4389 175.619L32.2735 173.658C31.4305 173.532 30.5718 173.351 30.493 172.366C30.43 171.649 30.8869 170.979 32.0214 170.79L31.9505 169.931H32.3208L32.3917 170.774C32.9381 170.739 33.4835 170.857 33.9673 171.113L33.8177 171.562C33.3972 171.344 32.9283 171.235 32.4547 171.247L32.6201 173.224C33.4789 173.351 34.3928 173.516 34.4794 174.517C34.5267 175.249 34.0304 175.919 32.8565 176.092ZM32.2262 173.169L32.0608 171.302C31.273 171.436 30.9893 171.862 31.0287 172.334C31.0681 172.807 31.596 173.067 32.2262 173.169ZM33.9201 174.603C33.8649 174.012 33.3056 173.815 32.6517 173.752L32.8092 175.619C33.6286 175.486 33.9595 175.076 33.9201 174.603Z" fill="#263238"/>
<path d="M333.754 65.8585C337.539 65.8585 340.608 62.7898 340.608 59.0043C340.608 55.2189 337.539 52.1502 333.754 52.1502C329.968 52.1502 326.9 55.2189 326.9 59.0043C326.9 62.7898 329.968 65.8585 333.754 65.8585Z" stroke="#263238" stroke-width="0.583324" stroke-miterlimit="10"/>
<path d="M334.061 62.8096V64.0386H333.494V62.8174C332.554 62.7989 331.65 62.4566 330.933 61.8484L331.241 61.2339C331.867 61.784 332.661 62.1061 333.494 62.1478V59.3352C332.312 59.0437 331.13 58.6813 331.13 57.2632C331.13 56.239 331.871 55.3488 333.494 55.2227V53.9701H334.03V55.1912C334.803 55.2076 335.556 55.4395 336.204 55.8609L335.936 56.4911C335.365 56.1226 334.708 55.9082 334.03 55.8687V58.7049C335.235 58.9964 336.511 59.3352 336.511 60.7769C336.543 61.809 335.763 62.715 334.061 62.8096ZM333.525 58.5631V55.8924C332.422 55.9869 331.95 56.5542 331.95 57.2317C331.918 58.0432 332.643 58.3425 333.494 58.5631H333.525ZM335.763 60.8163C335.763 59.9734 334.975 59.6819 334.061 59.4534V62.1478C335.235 62.0454 335.763 61.5018 335.763 60.8163Z" fill="#263238"/>
<path d="M288.61 150.701C292.294 149.833 294.577 146.142 293.709 142.458C292.841 138.773 289.15 136.49 285.465 137.359C281.781 138.227 279.498 141.918 280.366 145.602C281.234 149.287 284.925 151.57 288.61 150.701Z" stroke="#263238" stroke-width="0.583324" stroke-miterlimit="10"/>
<path d="M285.31 147.423L284.672 148.471L284.215 148.187L284.853 147.147C284.06 146.643 283.468 145.876 283.183 144.981L283.766 144.618C284.012 145.411 284.521 146.097 285.208 146.564L286.689 144.161C285.83 143.303 285.003 142.365 285.743 141.16C286.279 140.285 287.374 139.915 288.84 140.663L289.486 139.608L289.942 139.891L289.304 140.931C289.95 141.352 290.47 141.94 290.809 142.633L290.25 143.035C289.953 142.423 289.505 141.898 288.95 141.506L287.461 143.925C288.343 144.807 289.249 145.761 288.493 146.99C287.949 147.872 286.815 148.227 285.31 147.423ZM287.083 143.484L288.477 141.207C287.492 140.711 286.775 140.931 286.421 141.506C285.995 142.239 286.444 142.877 287.083 143.523V143.484ZM287.807 146.572C288.249 145.855 287.737 145.201 287.067 144.524L285.665 146.808C286.712 147.391 287.445 147.234 287.8 146.611L287.807 146.572Z" fill="#263238"/>
<path d="M188.674 11.7264C189.237 12.9595 189.422 14.3318 189.205 15.6699C188.988 17.0079 188.379 18.2516 187.455 19.2437C186.532 20.2357 185.335 20.9316 184.015 21.2433C182.696 21.5551 181.314 21.4686 180.044 20.995C178.774 20.5213 177.673 19.6817 176.88 18.5823C176.087 17.4828 175.638 16.173 175.589 14.8183C175.541 13.4637 175.895 12.1251 176.607 10.9717C177.319 9.81834 178.358 8.90206 179.591 8.3387C180.409 7.96347 181.294 7.75346 182.194 7.72069C183.094 7.68792 183.991 7.83304 184.835 8.14773C185.679 8.46242 186.453 8.94051 187.111 9.55459C187.77 10.1687 188.301 10.9067 188.674 11.7264Z" stroke="#263238" stroke-width="0.583324" stroke-miterlimit="10"/>
<path d="M184.302 17.8951L184.814 19.0139L184.325 19.2423L183.806 18.1315C182.943 18.507 181.975 18.5684 181.072 18.3048V17.6194C181.867 17.8597 182.72 17.8208 183.49 17.5091L182.324 14.9408C181.127 15.1692 179.89 15.3347 179.299 14.0505C178.874 13.113 179.173 12.0021 180.615 11.2064L180.103 10.0798L180.583 9.85922L181.095 10.9701C181.804 10.6626 182.584 10.5589 183.349 10.6707V11.3561C182.676 11.2607 181.989 11.3394 181.355 11.5846L182.537 14.1687C183.758 13.9244 185.058 13.7117 185.688 15.0117C186.169 15.9571 185.807 17.0994 184.302 17.8951ZM182.049 14.2632L180.938 11.8288C179.969 12.3724 179.756 13.0972 180.04 13.7039C180.378 14.4444 181.158 14.4208 182.049 14.2632ZM185.019 15.3741C184.664 14.5862 183.837 14.6729 182.907 14.8462L184.018 17.2806C185.05 16.7134 185.302 16.0043 185.019 15.3741Z" fill="#263238"/>
<path d="M165.591 289.304C166.437 291.156 166.714 293.218 166.388 295.228C166.062 297.239 165.148 299.107 163.76 300.598C162.372 302.088 160.574 303.133 158.592 303.602C156.61 304.07 154.534 303.94 152.625 303.228C150.717 302.517 149.063 301.255 147.872 299.603C146.681 297.952 146.006 295.984 145.933 293.949C145.861 291.913 146.393 289.902 147.463 288.17C148.533 286.437 150.093 285.061 151.945 284.215C153.176 283.653 154.504 283.339 155.856 283.29C157.207 283.242 158.555 283.46 159.822 283.933C161.089 284.405 162.251 285.123 163.241 286.045C164.231 286.966 165.029 288.074 165.591 289.304Z" stroke="#263238" stroke-width="0.583324" stroke-miterlimit="10"/>
<path d="M159.012 298.585L159.8 300.271L159.067 300.602L158.28 298.931C156.985 299.499 155.532 299.593 154.175 299.199L154.222 298.175C155.418 298.531 156.7 298.467 157.854 297.994L156.097 294.149C154.309 294.488 152.442 294.74 151.559 292.81C150.913 291.408 151.37 289.729 153.529 288.532L152.741 286.854L153.466 286.515L154.254 288.185C155.32 287.726 156.492 287.571 157.641 287.736V288.76C156.633 288.618 155.605 288.737 154.656 289.107L156.42 292.983C158.256 292.621 160.21 292.298 161.108 294.252C161.785 295.678 161.281 297.395 159.012 298.585ZM155.64 293.125L153.962 289.469C152.521 290.257 152.198 291.368 152.623 292.298C153.127 293.409 154.293 293.369 155.64 293.125ZM160.099 294.803C159.572 293.645 158.319 293.74 156.948 294.015L158.618 297.671C160.17 296.812 160.525 295.741 160.099 294.803Z" fill="#263238"/>
<path d="M18.0924 129.295C16.5625 130.639 14.6684 131.499 12.6498 131.766C10.6311 132.034 8.57838 131.697 6.75122 130.798C4.92406 129.899 3.40448 128.478 2.38458 126.716C1.36469 124.953 0.890288 122.928 1.02136 120.896C1.15242 118.864 1.88308 116.916 3.12094 115.299C4.3588 113.682 6.04829 112.469 7.97579 111.812C9.9033 111.155 11.9823 111.085 13.9499 111.609C15.9175 112.134 17.6853 113.23 19.0299 114.759C19.9231 115.775 20.6074 116.957 21.0437 118.237C21.48 119.518 21.6597 120.872 21.5726 122.221C21.4856 123.571 21.1334 124.891 20.5363 126.104C19.9391 127.318 19.1087 128.402 18.0924 129.295Z" stroke="#263238" stroke-width="0.583324" stroke-miterlimit="10"/>
<path d="M7.33056 125.671L5.94397 126.892L5.40824 126.285L6.78695 125.08C5.87354 123.999 5.36391 122.635 5.34521 121.22L6.34576 120.967C6.34626 122.209 6.7654 123.413 7.53539 124.387L10.6867 121.598C9.84375 119.983 9.06379 118.265 10.6867 116.871C11.8527 115.854 13.586 115.807 15.3507 117.525L16.7846 116.311L17.3124 116.91L15.9337 118.123C16.6671 119.015 17.1413 120.092 17.3045 121.235L16.3276 121.558C16.1707 120.551 15.7615 119.6 15.138 118.793L11.9315 121.606C12.806 123.252 13.6805 125.033 12.0654 126.459C10.8916 127.483 9.10318 127.538 7.33056 125.671ZM11.5849 120.865L14.6023 118.21C13.4048 117.06 12.2388 117.068 11.514 117.737C10.5686 118.541 10.9467 119.66 11.5612 120.865H11.5849ZM11.2619 125.592C12.223 124.757 11.7739 123.583 11.1122 122.323L8.09476 124.978C9.33166 126.246 10.4819 126.293 11.2697 125.616L11.2619 125.592Z" fill="#263238"/>
<path d="M65.2304 217.122C65.3403 214.376 63.2036 212.062 60.4581 211.952C57.7125 211.842 55.3978 213.979 55.288 216.724C55.1781 219.47 57.3148 221.785 60.0604 221.894C62.8059 222.004 65.1206 219.868 65.2304 217.122Z" stroke="#263238" stroke-width="0.58379" stroke-miterlimit="10"/>
<path d="M61.6912 217.887L62.2584 218.572L61.9669 218.816L61.3997 218.139C60.8666 218.567 60.2006 218.796 59.5168 218.785L59.4065 218.297C60.0078 218.312 60.5967 218.123 61.0767 217.761L59.7689 216.185C58.981 216.571 58.1459 216.926 57.4842 216.138C57.0115 215.571 57.0115 214.728 57.8623 213.892L57.2872 213.207L57.5866 212.963L58.1538 213.64C58.5924 213.292 59.1185 213.071 59.6743 213.002L59.8161 213.475C59.3292 213.542 58.8664 213.729 58.4689 214.019L59.7846 215.594C60.5725 215.192 61.4627 214.806 62.1481 215.594C62.6287 216.177 62.613 217.044 61.6912 217.887ZM59.438 215.775L58.1932 214.286C57.626 214.854 57.6181 215.397 57.9253 215.775C58.2326 216.154 58.8471 216.051 59.438 215.775ZM61.7306 215.988C61.3367 215.523 60.7694 215.72 60.1549 216.028L61.3997 217.517C62.0063 216.918 62.0457 216.366 61.7306 215.98V215.988Z" fill="#263238"/>
<path d="M218.147 315.176C218.776 315.932 219.167 316.857 219.27 317.835C219.373 318.812 219.185 319.799 218.727 320.669C218.27 321.539 217.565 322.254 216.701 322.724C215.838 323.194 214.854 323.397 213.875 323.308C212.896 323.218 211.966 322.841 211.201 322.223C210.437 321.605 209.873 320.774 209.58 319.836C209.288 318.897 209.28 317.893 209.558 316.95C209.837 316.007 210.388 315.168 211.143 314.538C212.157 313.696 213.464 313.29 214.777 313.409C216.09 313.529 217.302 314.165 218.147 315.176Z" stroke="#263238" stroke-width="0.583324" stroke-miterlimit="10"/>
<path d="M216.256 320.337L216.831 321.022L216.532 321.266L215.965 320.589C215.435 321.017 214.771 321.246 214.09 321.235L213.979 320.746C214.581 320.766 215.171 320.577 215.65 320.211L214.342 318.635C213.554 319.021 212.711 319.376 212.057 318.588C211.577 318.021 211.577 317.178 212.427 316.342L211.86 315.657L212.16 315.413L212.727 316.09C213.164 315.739 213.691 315.518 214.247 315.452L214.389 315.925C213.9 315.992 213.434 316.179 213.034 316.469L214.358 318.044C215.145 317.642 216.036 317.256 216.721 318.044C217.178 318.627 217.162 319.494 216.256 320.337ZM213.995 318.194L212.75 316.705C212.175 317.272 212.167 317.816 212.483 318.194C212.798 318.572 213.396 318.501 213.995 318.194ZM216.28 318.414C215.886 317.942 215.319 318.139 214.704 318.414L215.949 319.904C216.563 319.368 216.603 318.816 216.28 318.438V318.414Z" fill="#263238"/>
<path d="M82.086 31.9608C82.3367 29.2268 80.3236 26.8071 77.5896 26.5564C74.8555 26.3056 72.4358 28.3187 72.1851 31.0528C71.9343 33.7869 73.9475 36.2065 76.6815 36.4573C79.4156 36.708 81.8353 34.6949 82.086 31.9608Z" stroke="#263238" stroke-width="0.583324" stroke-miterlimit="10"/>
<path d="M79.0787 33.4864L79.6459 34.1718L79.3465 34.416L78.7793 33.7385C78.25 34.1681 77.5859 34.3969 76.9042 34.3845L76.794 33.896C77.3953 33.9118 77.9842 33.7229 78.4642 33.3603L77.1564 31.7846C76.3685 32.1707 75.5255 32.5252 74.8716 31.7374C74.3989 31.1701 74.3911 30.3271 75.2498 29.492L74.6747 28.8066L74.9741 28.5624L75.5413 29.2399C75.9791 28.8902 76.5056 28.6692 77.0618 28.6018L77.2036 29.0745C76.7167 29.142 76.2539 29.3287 75.8564 29.6181L77.1721 31.1938C77.9599 30.792 78.8502 30.4059 79.5356 31.1938C80.0004 31.7768 79.9768 32.6434 79.0787 33.4864ZM76.8097 31.3671L75.5649 29.8466C74.9977 30.4138 74.9819 30.9574 75.2971 31.3356C75.6122 31.7137 76.211 31.6507 76.8097 31.3671ZM79.1023 31.5798C78.7084 31.115 78.1333 31.3119 77.5266 31.5798L78.7714 33.0688C79.378 32.5173 79.4174 31.9658 79.1023 31.5798Z" fill="#263238"/>
<path opacity="0.2" d="M189.171 235.322C189.171 235.322 183.096 266.15 145.84 273.138C145.84 273.138 136.11 280.898 132.872 285.491C129.634 290.084 112.388 297.891 94.8195 322.251C77.2508 346.611 51.0947 269.254 51.0947 269.254L108.906 194.173L189.171 235.322Z" fill="black" fill-opacity="0.7"/>
<path d="M222.283 90.5729C222.283 90.5729 242.373 80.7486 246.793 82.4424C251.213 84.1363 255.459 94.2993 238.56 104.029C221.661 113.759 226.703 131.887 226.703 131.887H238.757C238.757 131.887 245.989 134.833 248.802 138.623C251.614 142.412 253.623 155.333 255.23 159.713C256.838 164.094 256.018 168.482 251.614 169.908C251.614 169.908 248.802 182.166 249.605 187.602C250.409 193.039 250.007 196.537 244.784 197.198C243.47 197.335 242.141 197.185 240.891 196.758C239.64 196.33 238.498 195.636 237.542 194.723C236.587 193.811 235.841 192.701 235.357 191.471C234.873 190.242 234.662 188.922 234.739 187.602L230.721 202.162L233.534 207.755C237.507 209.293 241.179 211.517 244.382 214.326C250.007 219.147 255.632 220.463 254.025 225.836C252.418 231.209 249.204 237 232.328 230.287C215.453 223.575 201.39 197.198 201.39 197.198L191.25 105.227L222.283 90.5729Z" fill="white"/>
<path opacity="0.4" d="M243.429 143.405C234.321 155.821 244.398 170.12 244.398 170.12C244.398 170.12 238.095 173.634 237.914 182.6C237.843 186.326 238.781 191.534 239.899 196.355C238.262 195.582 236.894 194.333 235.976 192.772C235.057 191.211 234.629 189.41 234.747 187.602L230.721 202.162L233.534 207.747C236.493 208.88 239.282 210.415 241.822 212.309C239.324 218.044 238.56 225.135 238.781 232.446C236.586 231.863 234.431 231.142 232.328 230.287C215.453 223.567 201.39 197.198 201.39 197.198L191.25 105.219L222.283 90.5728C222.283 90.5728 233.258 85.2077 240.774 83.0884C240.191 90.1159 241.562 97.3876 242.554 101.437C241.272 102.375 239.939 103.241 238.56 104.029C221.685 113.759 226.703 131.887 226.703 131.887H238.765C238.765 131.887 245.635 134.692 248.581 138.339C246.566 139.696 244.819 141.413 243.429 143.405Z" fill="#0037BA"/>
<path d="M190.896 220.502C190.896 220.502 169.041 263.353 129.65 273.075C129.65 273.075 128.145 281.552 121.48 285.191C117.919 287.13 103.549 308.661 90.9356 328.318L21.0704 285.459C25.372 281.205 30.2723 276.305 35.2515 271.192C49.8264 256.333 65.3782 239.678 70.1367 231.438C74.3911 224.111 79.772 211.395 84.4596 199.444C90.4629 184.16 95.3474 170.12 95.3474 170.12L118.636 144.232L155.246 103.525L156.822 108.732L190.896 220.502Z" fill="white"/>
<path opacity="0.4" d="M155.278 103.525L190.896 220.502C190.896 220.502 169.041 263.353 129.65 273.075C129.65 273.075 128.145 281.552 121.48 285.191C118.281 286.933 106.377 304.462 94.859 322.22C99.1291 307.566 111.49 284.207 111.49 284.207C103.557 274.808 105.873 264.905 109.048 267.725C112.223 270.546 120.204 278.471 120.708 278.968C117.202 274.839 116.391 268.371 116.391 268.371C116.391 268.371 126.223 274.91 127.018 264.432C127.814 253.954 121.125 228.349 121.125 228.349L103.565 161.021L155.278 103.525Z" fill="#0037BA"/>
<path d="M191.25 105.227L222.283 90.5729C222.283 90.5729 242.373 80.7486 246.793 82.4424C251.213 84.1363 255.459 94.2993 238.56 104.029C221.661 113.759 226.703 131.887 226.703 131.887H238.757C238.757 131.887 245.989 134.833 248.802 138.623C251.614 142.412 253.623 155.333 255.23 159.713C256.838 164.094 256.018 168.482 251.614 169.908C251.614 169.908 248.802 182.166 249.605 187.602C250.409 193.039 250.007 196.537 244.784 197.198C243.47 197.335 242.141 197.185 240.891 196.758C239.64 196.33 238.498 195.636 237.542 194.723C236.587 193.811 235.841 192.701 235.357 191.471C234.873 190.242 234.662 188.922 234.739 187.602L230.721 202.162L233.534 207.755C237.507 209.293 241.179 211.517 244.382 214.326C250.007 219.147 255.632 220.463 254.025 225.836C252.418 231.209 249.204 237 232.328 230.287C215.453 223.575 201.39 197.198 201.39 197.198" stroke="#263238" stroke-width="0.583324" stroke-linecap="round" stroke-linejoin="round"/>
<path d="M251.614 169.908C245.587 171.539 238.56 170.333 235.944 159.666C233.329 148.999 238.56 137.607 241.971 136.559" stroke="#263238" stroke-width="0.583324" stroke-linecap="round" stroke-linejoin="round"/>
<path d="M234.739 187.602C234.739 187.602 234.337 173.886 239.364 170.499" stroke="#263238" stroke-width="0.583324" stroke-linecap="round" stroke-linejoin="round"/>
<path opacity="0.4" d="M88.1781 255.726C88.1781 255.726 73.4535 253.891 70.1683 247.305C67.4502 241.853 52.7177 262.273 35.283 271.192C49.8579 256.333 65.4097 239.678 70.1683 231.438C74.4226 224.111 79.8035 211.395 84.4911 199.444C84.2547 209.355 78.9762 224.528 80.481 232.43C78.8686 232.857 77.4891 233.901 76.6412 235.337C75.7934 236.774 75.5454 238.486 75.951 240.104C77.0776 246.383 88.1781 255.726 88.1781 255.726Z" fill="#0037BA"/>
<path d="M190.896 220.502C190.896 220.502 169.041 263.353 129.642 273.075C129.642 273.075 128.145 281.552 121.48 285.191C117.919 287.13 103.557 308.661 90.9277 328.318" stroke="#263238" stroke-width="0.583324" stroke-linecap="round" stroke-linejoin="round"/>
<path d="M21.0704 285.459C37.8986 268.828 63.7632 242.459 70.1683 231.438C79.8586 214.759 95.3789 170.113 95.3789 170.113L155.254 103.525" stroke="#263238" stroke-width="0.583324" stroke-linecap="round" stroke-linejoin="round"/>
<path d="M121.086 154.38C121.086 154.38 130.288 162.62 132.903 170.136" stroke="#263238" stroke-width="0.583324" stroke-linecap="round" stroke-linejoin="round"/>
<path d="M229.705 34.353H130.698C127.769 34.353 125.395 36.7268 125.395 39.6551V250.424C125.395 253.353 127.769 255.727 130.698 255.727H229.705C232.633 255.727 235.007 253.353 235.007 250.424V39.6551C235.007 36.7268 232.633 34.353 229.705 34.353Z" fill="#263238"/>
<path d="M201.926 40.3799L199.83 44.2167C199.608 44.633 199.278 44.9817 198.875 45.2258C198.471 45.4699 198.009 45.6003 197.537 45.6033H162.873C162.402 45.6008 161.94 45.4723 161.536 45.2313C161.131 44.9902 160.798 44.6454 160.572 44.2324L158.484 40.3957C158.26 39.9811 157.928 39.6348 157.523 39.3935C157.118 39.1522 156.655 39.0248 156.184 39.0248H131.958C131.613 39.0259 131.271 39.095 130.953 39.2283C130.634 39.3616 130.345 39.5564 130.102 39.8016C129.859 40.0468 129.667 40.3375 129.537 40.6571C129.406 40.9767 129.34 41.3189 129.342 41.6641V248.864C129.342 249.559 129.618 250.225 130.108 250.717C130.598 251.209 131.264 251.486 131.958 251.488H228.436C228.782 251.49 229.125 251.424 229.445 251.293C229.765 251.162 230.056 250.969 230.302 250.725C230.547 250.481 230.741 250.191 230.874 249.872C231.007 249.553 231.075 249.21 231.075 248.864V41.6641C231.075 40.9683 230.799 40.301 230.307 39.809C229.815 39.317 229.148 39.0406 228.452 39.0406H204.234C203.764 39.0361 203.302 39.158 202.896 39.3937C202.49 39.6294 202.155 39.97 201.926 40.3799Z" fill="#1A56E6" stroke="#263238" stroke-width="0.583324" stroke-linecap="round" stroke-linejoin="round"/>
<path d="M172.681 42.2392C173.46 42.2392 174.091 41.6078 174.091 40.829C174.091 40.0501 173.46 39.4188 172.681 39.4188C171.902 39.4188 171.271 40.0501 171.271 40.829C171.271 41.6078 171.902 42.2392 172.681 42.2392Z" stroke="white" stroke-width="0.583324" stroke-miterlimit="10"/>
<path d="M189.123 40.829C189.122 41.0016 189.069 41.1699 188.972 41.3127C188.875 41.4554 188.738 41.5663 188.578 41.6313C188.418 41.6963 188.243 41.7125 188.073 41.6778C187.904 41.6432 187.749 41.5593 187.628 41.4367C187.506 41.3141 187.424 41.1583 187.391 40.9888C187.358 40.8194 187.375 40.644 187.442 40.4847C187.508 40.3253 187.62 40.1892 187.764 40.0935C187.907 39.9977 188.076 39.9466 188.249 39.9466C188.364 39.9466 188.479 39.9695 188.585 40.0139C188.692 40.0584 188.789 40.1235 188.87 40.2055C188.951 40.2876 189.016 40.3849 189.059 40.4919C189.103 40.5989 189.124 40.7135 189.123 40.829Z" stroke="white" stroke-width="0.583324" stroke-miterlimit="10"/>
<path d="M185.2 40.2775H176.628C176.556 40.2775 176.485 40.2918 176.418 40.3196C176.352 40.3474 176.292 40.3882 176.241 40.4395C176.19 40.4908 176.151 40.5517 176.124 40.6185C176.097 40.6854 176.084 40.7569 176.085 40.829C176.085 40.9732 176.142 41.1114 176.244 41.2134C176.346 41.3153 176.484 41.3726 176.628 41.3726H185.2C185.344 41.3726 185.482 41.3153 185.584 41.2134C185.686 41.1114 185.743 40.9732 185.743 40.829C185.745 40.7569 185.731 40.6854 185.704 40.6185C185.678 40.5517 185.638 40.4908 185.587 40.4395C185.537 40.3882 185.476 40.3474 185.41 40.3196C185.343 40.2918 185.272 40.2775 185.2 40.2775Z" fill="white"/>
<path d="M147.281 44.2797H138.04V48.2031H147.281V44.2797Z" stroke="#263238" stroke-width="0.583324" stroke-linecap="round" stroke-linejoin="round"/>
<path d="M148.707 44.9415H147.274V47.5492H148.707V44.9415Z" stroke="#263238" stroke-width="0.583324" stroke-linecap="round" stroke-linejoin="round"/>
<path d="M212.766 46.785H211.128V48.211H212.766V46.785Z" stroke="#263238" stroke-width="0.583324" stroke-linecap="round" stroke-linejoin="round"/>
<path d="M215.965 45.3512H214.326V48.211H215.965V45.3512Z" stroke="#263238" stroke-width="0.583324" stroke-linecap="round" stroke-linejoin="round"/>
<path d="M219.163 43.9173H217.525V48.2031H219.163V43.9173Z" stroke="#263238" stroke-width="0.583324" stroke-linecap="round" stroke-linejoin="round"/>
<path d="M222.354 42.4834H220.715V48.2031H222.354V42.4834Z" stroke="#263238" stroke-width="0.583324" stroke-linecap="round" stroke-linejoin="round"/>
<path d="M201.792 148.297C201.792 147.108 202.422 146.399 203.281 146.399C204.139 146.399 204.77 147.108 204.77 148.297C204.77 149.487 204.147 150.196 203.281 150.196C202.414 150.196 201.792 149.487 201.792 148.297ZM204.376 148.297C204.376 147.305 203.935 146.722 203.281 146.722C202.627 146.722 202.186 147.273 202.186 148.297C202.186 149.322 202.635 149.873 203.281 149.873C203.927 149.873 204.376 149.29 204.376 148.297Z" fill="#263238"/>
<path d="M206.345 146.446V150.18H205.959V146.793H205.077V146.446H206.345Z" fill="#263238"/>
<path d="M209.662 146.446V150.18H209.276V146.793H208.394V146.446H209.662Z" fill="#263238"/>
<path d="M211.577 146.446V150.18H211.198V146.793H210.316V146.446H211.577Z" fill="#263238"/>
<path d="M215.012 149.818V150.165H212.396V149.889L213.972 148.368C214.389 147.959 214.476 147.707 214.476 147.454C214.476 147.021 214.169 146.753 213.601 146.753C213.411 146.741 213.221 146.772 213.045 146.845C212.869 146.917 212.712 147.029 212.585 147.171L212.309 146.934C212.478 146.755 212.684 146.614 212.912 146.521C213.141 146.429 213.387 146.387 213.633 146.399C214.421 146.399 214.87 146.785 214.87 147.407C214.858 147.634 214.796 147.856 214.69 148.058C214.584 148.259 214.436 148.435 214.255 148.573L212.955 149.818H215.012Z" fill="#263238"/>
<path d="M216.524 146.446V150.18H216.107V146.793H215.232V146.446H216.524Z" fill="#263238"/>
<path d="M130.776 208.086C131.958 226.246 123.544 246.469 123.544 246.469L78.0938 233.675L70.1682 231.438C78.0466 220.495 81.7966 198.939 79.7404 181.497C79.5828 180.181 79.4883 178.944 79.4174 177.762C78.6296 163.377 84.6092 159.17 89.6592 152.812C95.1741 145.926 107.449 119.928 107.449 113.775C107.449 107.622 122.851 92.5582 119.424 75.4622C119.424 75.4622 124.08 72.5708 128.759 74.9422C130.887 76.0137 133.006 78.1645 134.715 82.1509C138.726 91.5182 133.093 117.997 128.303 124.489L119.077 162.683C119.077 162.683 122.189 168.048 125.246 177.786C128.284 187.631 130.141 197.803 130.776 208.086Z" fill="white"/>
<path opacity="0.4" d="M79.4174 177.762C81.9936 184.814 84.7274 189.58 84.4911 199.459C84.2547 209.339 78.9762 224.544 80.481 232.446C79.6214 232.7 78.8188 233.117 78.1175 233.675L70.1919 231.438C78.0702 220.495 81.8203 198.939 79.7641 181.497C79.5829 180.181 79.4883 178.944 79.4174 177.762Z" fill="#0037BA"/>
<path opacity="0.4" d="M128.303 124.489L119.077 162.683C119.077 162.683 122.189 168.048 125.246 177.786C118.998 167.718 113.688 164.708 113.688 164.708C117.848 159.721 121.054 123.244 121.054 123.244C121.054 123.244 134.093 107.921 132.872 91.8885C132.48 86.0462 131.089 80.3143 128.76 74.9422C130.887 76.0137 133.006 78.1644 134.716 82.1509C138.726 91.5182 133.093 117.997 128.303 124.489Z" fill="#0037BA"/>
<path d="M70.1682 231.438C78.0466 220.495 81.7966 198.939 79.7483 181.497C77.6999 164.054 84.1917 159.69 89.6671 152.804C95.1426 145.918 107.449 119.928 107.449 113.767C107.449 107.606 122.843 92.5661 119.424 75.4622C119.424 75.4622 129.248 69.3722 134.715 82.1509C138.726 91.5261 133.093 117.997 128.303 124.497L119.085 162.683C119.085 162.683 128.925 179.661 130.776 208.086C131.958 226.246 123.544 246.477 123.544 246.477" stroke="#263238" stroke-width="0.583324" stroke-linecap="round" stroke-linejoin="round"/>
<path d="M100.547 261.005C100.547 261.005 110.891 267.371 116.926 277.439" stroke="#263238" stroke-width="0.583324" stroke-linecap="round" stroke-linejoin="round"/>
<path d="M129.602 273.051C129.602 273.051 120.692 274.319 112.64 264.684C107.48 258.515 91.8101 255.727 88.2175 239.592" stroke="#263238" stroke-width="0.583324" stroke-linecap="round" stroke-linejoin="round"/>
<path opacity="0.2" d="M259.107 320.762C236.299 309.851 250.11 301.106 218.73 287.563C187.351 274.02 187.036 262.447 190.817 235.834C194.599 209.221 191.605 180.914 200.728 178.511C209.851 176.108 193.59 139.403 204.226 126.427L256.57 228.247L259.107 320.762Z" fill="black" fill-opacity="0.7"/>
<path d="M344.09 319.699C343.019 316.634 341.932 313.286 341.089 310.245C340.001 306.305 339.151 303.154 337.149 299.491C336.834 298.908 336.496 298.293 336.117 297.631C333.982 293.826 331.06 288.619 329.35 282.221C328.2 277.912 329.35 267.3 330.421 257.011C331.209 249.621 331.926 242.648 331.713 238.694L331.65 237.291C331.115 226.947 329.996 205.423 327.711 199.475C325.466 193.74 323.37 192.881 319.549 191.353C319.155 191.179 318.761 191.022 318.304 190.833C316.871 190.234 314.428 188.973 311.616 187.516C305.274 184.231 297.38 180.142 293.37 179.638C289.618 179.216 285.824 179.391 282.127 180.157C277.187 176.368 268.781 171.491 266.276 171.389C264.228 171.286 259.753 172.571 257.61 173.24L256.53 173.587C255.173 172.534 253.735 171.591 252.229 170.766C252.126 170.711 252.024 170.672 251.937 170.633C249.156 169.49 244.957 169.451 242.665 169.514C241.971 169.514 241.428 169.585 241.183 169.608C236.858 162.951 232.604 156.325 230.752 153.418C226.892 147.305 214.941 122.149 214.822 121.905C214.809 121.873 214.787 121.844 214.76 121.822C214.732 121.8 214.7 121.785 214.665 121.779C214.628 121.774 214.591 121.774 214.555 121.779C213.625 121.511 206.779 119.77 204.029 126.404C201.02 133.628 205.313 149.487 209.505 155.246C211.521 158.019 217.028 169.333 222.614 181.04C221.18 182.371 209.709 192.968 204.139 194.945C199.578 196.56 200.649 219.943 201.508 238.717C201.831 245.65 202.099 251.614 202.02 255.199C201.863 262.132 214.476 271.68 226.703 280.914C237.733 289.28 249.172 297.923 250.511 304.202C250.882 305.967 251.937 307.401 253.198 309.016C255.301 311.694 258.012 314.853 259.162 320.833C259.501 322.629 262.384 324.977 264.677 328.814H347.431C346.737 326.947 345.43 323.543 344.09 319.699ZM229.326 195.142C233.337 203.54 235.818 208.535 236.417 209.095C237.016 209.654 236.976 212.317 236.961 214.909C236.874 217.178 236.953 219.45 237.197 221.708C236.22 222.567 230.051 228.184 228.807 232.738L223.567 226.569L222.244 207.212C223.032 206.377 228.42 200.681 229.326 195.142Z" fill="white"/>
<path opacity="0.4" d="M320.345 249.109C322.291 267.268 322.315 277.116 324.497 282.371C328.184 291.242 333.612 293.038 333.612 293.038C331.807 289.6 330.373 285.979 329.334 282.237C328.192 277.928 329.334 267.316 330.406 257.026C331.194 249.637 331.918 242.656 331.713 238.701L331.643 237.299C331.107 226.963 329.988 205.439 327.703 199.483C325.466 193.748 323.362 192.889 319.541 191.353C319.148 191.187 318.754 191.03 318.297 190.84C316.863 190.242 314.428 188.981 311.608 187.524C305.266 184.238 297.372 180.15 293.362 179.645C289.61 179.219 285.815 179.394 282.119 180.165C277.18 176.376 268.773 171.499 266.268 171.397C264.22 171.294 258.666 172.909 256.507 173.595C265.961 181.308 279.575 190.927 279.575 190.927C290.344 193.07 288.966 197.742 293.322 200.381C297.262 202.745 301.027 195.827 304.352 195.221C308.701 194.433 313.641 199.018 313.42 204.58C312.742 219.904 318.675 233.517 320.345 249.109Z" fill="#0037BA"/>
<path opacity="0.4" d="M265.906 192.834C265.906 192.834 257.373 185.743 253.3 183.38C249.227 181.016 248.573 172.87 251.788 170.893C251.91 170.819 252.048 170.776 252.19 170.766L251.898 170.633C249.117 169.49 244.918 169.443 242.625 169.514C247.352 178.314 251.126 185.066 252.142 186.547C255.569 191.494 265.906 192.834 265.906 192.834Z" fill="#0037BA"/>
<path opacity="0.4" d="M252.962 303.099C253.324 301.216 250.22 295.701 248.857 293.464C245.761 288.359 209.812 256.593 215.02 248.116C220.227 239.639 224.986 245.91 228.279 246.462C230.642 246.855 237.134 242.987 237.102 242.664C236.362 236.133 242.389 231.887 242.389 231.887C242.389 231.887 241.837 205.888 240.451 206.329C239.064 206.77 222.472 167.292 222.472 167.292C222.472 167.292 204.935 143.972 205.928 133.092C206.921 122.212 214.531 122.023 214.531 122.023V121.732C213.601 121.464 206.755 119.723 204.006 126.356C200.996 133.581 205.29 149.44 209.481 155.199C211.498 157.972 217.005 169.285 222.591 180.993C221.157 182.324 209.686 192.92 204.116 194.898C199.554 196.513 200.626 219.896 201.485 238.67C201.808 245.603 202.075 251.567 201.997 255.151C201.839 262.084 214.452 271.633 226.679 280.866C237.709 289.233 249.148 297.876 250.488 304.155C250.858 305.919 251.914 307.353 253.174 308.968C252.923 307.023 252.852 305.058 252.962 303.099ZM229.327 195.166C233.337 203.564 235.818 208.559 236.417 209.118C237.016 209.678 236.976 212.34 236.961 214.932C236.874 217.202 236.953 219.474 237.197 221.731C236.22 222.59 230.051 228.207 228.807 232.761L223.568 226.592L222.244 207.235C223.032 206.377 228.421 200.681 229.327 195.142V195.166Z" fill="#0037BA"/>
<path d="M261.013 192.731C257.492 191.623 254.4 189.455 252.158 186.523C248.558 181.702 234.416 159.737 230.5 153.544C226.585 147.352 214.531 122.023 214.531 122.023C214.531 122.023 207.125 119.541 204.242 126.459C201.358 133.376 205.305 149.006 209.694 155.026C214.082 161.045 234.936 207.393 236.59 208.89C238.245 210.387 235.763 222.756 239.08 225.749" stroke="#263238" stroke-width="0.583324" stroke-linecap="round" stroke-linejoin="round"/>
<path d="M237.489 221.818C237.489 221.818 229.846 228.475 228.948 233.336L223.276 226.663L221.937 207.109C221.937 207.109 228.783 200.255 229.161 194.157" stroke="#263238" stroke-width="0.583324" stroke-linecap="round" stroke-linejoin="round"/>
<path d="M222.906 181.016C222.906 181.016 210.214 192.991 204.179 195.126C198.144 197.261 202.548 242.128 202.249 255.12C201.949 268.111 247.904 290.746 250.724 304.044C251.843 309.339 256.475 310.418 259.304 320.589" stroke="#263238" stroke-width="0.583324" stroke-linecap="round" stroke-linejoin="round"/>
<path d="M240.971 169.868C240.971 169.868 247.88 169.246 251.772 170.869C255.664 172.492 271.468 186.066 275.281 188.658C279.094 191.25 284.829 192.235 285.917 195.032" stroke="#263238" stroke-width="0.583324" stroke-linecap="round" stroke-linejoin="round"/>
<path d="M256.42 173.871C256.42 173.871 263.511 171.507 266.221 171.641C268.931 171.775 279.126 177.786 283.695 181.804C287.196 184.91 291.229 187.36 295.599 189.036" stroke="#263238" stroke-width="0.583324" stroke-linecap="round" stroke-linejoin="round"/>
<path d="M282.033 180.441C285.733 179.644 289.539 179.461 293.299 179.897C299.066 180.685 313.546 189.194 318.163 191.116C322.78 193.039 324.985 193.393 327.412 199.601C329.838 205.809 330.949 229.413 331.438 238.741C331.926 248.069 327.065 274.784 329.074 282.3C331.083 289.816 334.707 295.615 336.905 299.633" stroke="#263238" stroke-width="0.583324" stroke-linecap="round" stroke-linejoin="round"/>
<path d="M221.937 207.109C221.937 207.109 220.834 202.5 219.258 201.91" stroke="#263238" stroke-width="0.583324" stroke-linecap="round" stroke-linejoin="round"/>
<path d="M223.276 226.663C223.807 229.35 224.526 231.995 225.427 234.581C226.561 237.378 224.797 241.427 224.797 241.427" stroke="#263238" stroke-width="0.583324" stroke-linecap="round" stroke-linejoin="round"/>
<path d="M228.948 233.336C228.767 237.811 233.218 243.042 234.298 242.302" stroke="#263238" stroke-width="0.583324" stroke-linecap="round" stroke-linejoin="round"/>
<path d="M251.614 207.109C251.614 207.109 256.397 199.373 260.982 198.995C265.567 198.616 270.861 205.124 273.689 204.509C276.518 203.895 280.079 199.735 284.837 198.995C289.596 198.254 291.825 200.523 295.599 200.712C299.373 200.901 299.759 195.859 304.265 195.197C308.772 194.535 310.308 196.773 313.333 197.356C316.359 197.939 317.115 195.552 319.565 194.205" stroke="#263238" stroke-width="0.583324" stroke-linecap="round" stroke-linejoin="round"/>
<path d="M155.455 90.5226V92.2881C155.455 94.472 154.409 95.635 152.267 95.635H151.255V100.747H149.113V87.1506H152.267C154.409 87.1506 155.455 88.3388 155.455 90.5226ZM151.271 89.1002V93.7106H152.284C152.961 93.7106 153.33 93.401 153.33 92.4304V90.3804C153.33 89.4098 152.961 89.1002 152.284 89.1002H151.271Z" fill="white"/>
<path d="M163.128 100.773H160.969L160.593 98.3042H157.974L157.597 100.773H155.631L157.815 87.1506H160.944L163.128 100.773ZM158.241 96.455H160.308L159.296 89.5688H159.254L158.241 96.455Z" fill="white"/>
<path d="M165.169 96.2626L162.467 87.1506H164.743L166.358 93.3591H166.399L168.014 87.1506H170.056L167.353 96.2626V100.773H165.211L165.169 96.2626Z" fill="white"/>
<path d="M175.386 96.8232H175.428L176.867 87.1506H179.846V100.773H177.821V91.0079L176.382 100.773H174.357L172.8 91.1418V100.773H170.851V87.1506H173.83L175.386 96.8232Z" fill="white"/>
<path d="M183.544 92.8906H186.498V94.8402H183.561V98.8314H187.259V100.773H181.402V87.1506H187.259V89.1002H183.561L183.544 92.8906Z" fill="white"/>
<path d="M190.514 90.9075H190.472V100.773H188.548V87.1506H191.233L193.392 95.3087V87.1506H195.3V100.773H193.108L190.514 90.9075Z" fill="white"/>
<path d="M196.254 87.1506H202.872V89.1002H200.63V100.773H198.488V89.1002H196.254V87.1506Z" fill="white"/>
<path d="M206.688 87C208.763 87 209.834 88.2467 209.834 90.4222V90.849H207.809V90.2883C207.809 89.3094 207.424 88.9412 206.738 88.9412C206.052 88.9412 205.675 89.3094 205.675 90.2883C205.675 91.2673 206.102 92.0204 207.5 93.242C209.29 94.8234 209.859 95.9446 209.859 97.5009C209.859 99.6848 208.763 100.932 206.663 100.932C204.563 100.932 203.475 99.6848 203.475 97.5009V96.6642H205.5V97.6432C205.5 98.6138 205.926 98.9652 206.604 98.9652C207.282 98.9652 207.717 98.6138 207.717 97.6432C207.717 96.6726 207.29 95.9112 205.885 94.6812C204.094 93.1081 203.533 91.9785 203.533 90.4222C203.533 88.2467 204.604 87 206.688 87Z" fill="white"/>
<path d="M149.887 182.978V173.544H150.201L155.862 182.349H156.176V172.915M148 176.689H158.063M148 179.205H158.063" stroke="white" stroke-width="1.43757"/>
<path d="M167.782 180.935V182.993H159.565V181.361L163.749 177.395C164.719 176.475 164.887 175.923 164.887 175.387C164.887 174.55 164.293 174.04 163.146 174.04C162.711 174.023 162.278 174.113 161.885 174.303C161.493 174.493 161.153 174.776 160.895 175.128L159.063 173.948C159.558 173.279 160.212 172.744 160.966 172.39C161.72 172.037 162.549 171.876 163.381 171.923C165.807 171.923 167.422 173.17 167.422 175.145C167.422 176.199 167.121 177.161 165.598 178.575L163.088 180.935H167.782Z" fill="#F7F7F7"/>
<path d="M179.103 177.546C179.103 173.957 181.094 171.915 183.763 171.915C186.433 171.915 188.424 173.957 188.424 177.546C188.424 181.136 186.449 183.169 183.763 183.169C181.078 183.169 179.103 181.136 179.103 177.546ZM185.897 177.546C185.897 175.036 185.06 174.049 183.763 174.049C182.467 174.049 181.655 175.07 181.655 177.546C181.655 180.023 182.492 181.035 183.763 181.035C185.035 181.035 185.864 180.015 185.864 177.546H185.897Z" fill="#F7F7F7"/>
<path d="M168.782 177.546C168.782 173.957 170.773 171.915 173.442 171.915C176.111 171.915 178.103 173.957 178.103 177.546C178.103 181.136 176.128 183.169 173.442 183.169C170.756 183.169 168.782 181.136 168.782 177.546ZM175.576 177.546C175.576 175.036 174.739 174.049 173.442 174.049C172.145 174.049 171.334 175.07 171.334 177.546C171.334 180.023 172.17 181.035 173.442 181.035C174.714 181.035 175.543 180.015 175.543 177.546H175.576Z" fill="#F7F7F7"/>
<path d="M189.424 177.546C189.424 173.957 191.415 171.915 194.085 171.915C196.754 171.915 198.745 173.957 198.745 177.546C198.745 181.136 196.771 183.169 194.085 183.169C191.399 183.169 189.424 181.136 189.424 177.546ZM196.21 177.546C196.21 175.036 195.373 174.049 194.085 174.049C192.796 174.049 191.968 175.07 191.968 177.546C191.968 180.023 192.804 181.035 194.085 181.035C195.365 181.035 196.21 180.015 196.21 177.546Z" fill="#F7F7F7"/>
<path d="M162 139.409L166.267 135.142L174.494 142.458L190.649 126.915L194.609 131.182L173.889 150.684L162 139.409Z" fill="white"/>
<path d="M162.754 165H162.228L163.748 160.862H164.265L165.784 165H165.259L164.022 161.517H163.99L162.754 165ZM162.948 163.384H165.065V163.828H162.948V163.384ZM166.554 165V161.897H167.014V162.381H167.055C167.12 162.216 167.224 162.087 167.368 161.996C167.512 161.903 167.685 161.856 167.887 161.856C168.092 161.856 168.262 161.903 168.399 161.996C168.536 162.087 168.643 162.216 168.72 162.381H168.752C168.832 162.221 168.951 162.094 169.11 162C169.269 161.904 169.459 161.856 169.682 161.856C169.959 161.856 170.186 161.943 170.362 162.117C170.539 162.289 170.627 162.558 170.627 162.923V165H170.15V162.923C170.15 162.694 170.088 162.53 169.962 162.432C169.837 162.334 169.69 162.284 169.52 162.284C169.302 162.284 169.133 162.35 169.013 162.482C168.893 162.613 168.833 162.779 168.833 162.98V165H168.348V162.874C168.348 162.698 168.291 162.556 168.176 162.448C168.062 162.339 167.914 162.284 167.734 162.284C167.61 162.284 167.494 162.317 167.386 162.383C167.28 162.449 167.194 162.541 167.128 162.658C167.063 162.774 167.031 162.908 167.031 163.06V165H166.554ZM172.949 165.065C172.669 165.065 172.423 164.998 172.212 164.865C172.002 164.731 171.837 164.545 171.719 164.305C171.602 164.065 171.543 163.785 171.543 163.464C171.543 163.141 171.602 162.859 171.719 162.618C171.837 162.377 172.002 162.19 172.212 162.056C172.423 161.923 172.669 161.856 172.949 161.856C173.23 161.856 173.475 161.923 173.685 162.056C173.896 162.19 174.061 162.377 174.178 162.618C174.296 162.859 174.356 163.141 174.356 163.464C174.356 163.785 174.296 164.065 174.178 164.305C174.061 164.545 173.896 164.731 173.685 164.865C173.475 164.998 173.23 165.065 172.949 165.065ZM172.949 164.636C173.162 164.636 173.337 164.582 173.475 164.473C173.612 164.364 173.714 164.22 173.78 164.042C173.846 163.864 173.879 163.672 173.879 163.464C173.879 163.257 173.846 163.064 173.78 162.885C173.714 162.705 173.612 162.561 173.475 162.45C173.337 162.34 173.162 162.284 172.949 162.284C172.737 162.284 172.561 162.34 172.424 162.45C172.287 162.561 172.185 162.705 172.119 162.885C172.053 163.064 172.02 163.257 172.02 163.464C172.02 163.672 172.053 163.864 172.119 164.042C172.185 164.22 172.287 164.364 172.424 164.473C172.561 164.582 172.737 164.636 172.949 164.636ZM177.229 163.731V161.897H177.706V165H177.229V164.475H177.197C177.124 164.632 177.011 164.766 176.857 164.877C176.704 164.986 176.51 165.04 176.275 165.04C176.081 165.04 175.909 164.998 175.758 164.913C175.607 164.827 175.489 164.698 175.402 164.525C175.316 164.351 175.273 164.133 175.273 163.869V161.897H175.75V163.836C175.75 164.063 175.813 164.243 175.94 164.378C176.068 164.512 176.231 164.58 176.429 164.58C176.547 164.58 176.668 164.549 176.791 164.489C176.914 164.428 177.018 164.335 177.102 164.21C177.187 164.085 177.229 163.925 177.229 163.731ZM179.246 163.133V165H178.769V161.897H179.229V162.381H179.27C179.343 162.224 179.453 162.097 179.601 162.002C179.749 161.905 179.941 161.856 180.175 161.856C180.385 161.856 180.569 161.899 180.727 161.985C180.884 162.07 181.007 162.2 181.094 162.373C181.182 162.546 181.226 162.764 181.226 163.028V165H180.749V163.06C180.749 162.817 180.686 162.627 180.559 162.491C180.432 162.353 180.259 162.284 180.038 162.284C179.885 162.284 179.749 162.317 179.63 162.383C179.511 162.449 179.417 162.546 179.349 162.672C179.28 162.799 179.246 162.953 179.246 163.133ZM183.636 161.897V162.301H182.028V161.897H183.636ZM182.497 161.153H182.974V164.111C182.974 164.246 182.993 164.347 183.032 164.414C183.073 164.48 183.124 164.525 183.186 164.547C183.249 164.569 183.316 164.58 183.386 164.58C183.438 164.58 183.481 164.577 183.515 164.572C183.549 164.565 183.576 164.56 183.596 164.555L183.693 164.984C183.661 164.996 183.615 165.008 183.558 165.02C183.5 165.034 183.426 165.04 183.337 165.04C183.203 165.04 183.071 165.011 182.941 164.954C182.813 164.896 182.707 164.807 182.622 164.689C182.539 164.57 182.497 164.421 182.497 164.24V161.153Z" fill="#F7F7F7"/>
<path d="M152.361 110.288C152.335 110.027 152.224 109.825 152.028 109.681C151.832 109.536 151.566 109.464 151.231 109.464C151.002 109.464 150.81 109.497 150.652 109.561C150.495 109.624 150.375 109.711 150.291 109.823C150.209 109.935 150.168 110.062 150.168 110.204C150.164 110.322 150.188 110.426 150.242 110.514C150.298 110.602 150.375 110.679 150.472 110.743C150.568 110.806 150.68 110.861 150.807 110.908C150.935 110.953 151.07 110.992 151.214 111.024L151.809 111.166C152.097 111.231 152.362 111.317 152.603 111.425C152.844 111.532 153.053 111.665 153.23 111.822C153.406 111.979 153.543 112.164 153.64 112.377C153.739 112.591 153.79 112.835 153.792 113.111C153.79 113.515 153.686 113.866 153.482 114.163C153.279 114.458 152.986 114.688 152.603 114.851C152.222 115.013 151.762 115.094 151.224 115.094C150.69 115.094 150.225 115.012 149.829 114.848C149.435 114.685 149.127 114.442 148.905 114.122C148.686 113.799 148.57 113.399 148.56 112.923H149.913C149.928 113.145 149.991 113.33 150.103 113.479C150.218 113.625 150.369 113.736 150.559 113.811C150.75 113.885 150.967 113.921 151.208 113.921C151.445 113.921 151.65 113.887 151.825 113.818C152.001 113.749 152.138 113.653 152.235 113.53C152.332 113.408 152.38 113.267 152.38 113.107C152.38 112.959 152.336 112.834 152.248 112.733C152.162 112.632 152.035 112.545 151.867 112.474C151.701 112.403 151.498 112.339 151.256 112.281L150.536 112.1C149.979 111.964 149.538 111.752 149.215 111.463C148.892 111.175 148.732 110.786 148.734 110.297C148.732 109.897 148.838 109.547 149.054 109.248C149.271 108.949 149.569 108.715 149.948 108.547C150.327 108.379 150.758 108.295 151.24 108.295C151.731 108.295 152.16 108.379 152.526 108.547C152.894 108.715 153.18 108.949 153.385 109.248C153.589 109.547 153.695 109.894 153.701 110.288H152.361ZM159.121 108.385H160.52V112.681C160.52 113.163 160.405 113.585 160.174 113.947C159.946 114.309 159.626 114.591 159.215 114.793C158.804 114.994 158.325 115.094 157.778 115.094C157.229 115.094 156.748 114.994 156.337 114.793C155.926 114.591 155.606 114.309 155.378 113.947C155.15 113.585 155.036 113.163 155.036 112.681V108.385H156.434V112.562C156.434 112.813 156.489 113.037 156.599 113.233C156.711 113.429 156.868 113.583 157.07 113.695C157.273 113.807 157.509 113.863 157.778 113.863C158.049 113.863 158.285 113.807 158.485 113.695C158.687 113.583 158.843 113.429 158.953 113.233C159.065 113.037 159.121 112.813 159.121 112.562V108.385ZM167.81 110.701H166.395C166.369 110.518 166.316 110.356 166.237 110.214C166.157 110.069 166.055 109.947 165.93 109.845C165.805 109.744 165.661 109.667 165.497 109.613C165.336 109.559 165.16 109.532 164.971 109.532C164.628 109.532 164.33 109.617 164.076 109.787C163.822 109.955 163.625 110.201 163.485 110.524C163.345 110.844 163.275 111.234 163.275 111.693C163.275 112.164 163.345 112.56 163.485 112.881C163.627 113.202 163.825 113.444 164.079 113.608C164.333 113.772 164.627 113.853 164.961 113.853C165.148 113.853 165.322 113.829 165.481 113.779C165.642 113.73 165.786 113.658 165.911 113.563C166.035 113.466 166.139 113.349 166.221 113.211C166.305 113.073 166.363 112.916 166.395 112.739L167.81 112.746C167.773 113.049 167.681 113.342 167.535 113.624C167.391 113.904 167.196 114.155 166.95 114.377C166.707 114.596 166.417 114.771 166.078 114.9C165.743 115.027 165.363 115.09 164.938 115.09C164.348 115.09 163.821 114.957 163.356 114.69C162.893 114.423 162.527 114.036 162.258 113.53C161.991 113.024 161.857 112.412 161.857 111.693C161.857 110.971 161.993 110.358 162.264 109.852C162.535 109.346 162.904 108.96 163.369 108.696C163.834 108.429 164.357 108.295 164.938 108.295C165.322 108.295 165.677 108.349 166.004 108.457C166.334 108.564 166.625 108.721 166.879 108.928C167.134 109.133 167.34 109.383 167.5 109.681C167.661 109.978 167.764 110.318 167.81 110.701ZM174.952 110.701H173.537C173.511 110.518 173.459 110.356 173.379 110.214C173.299 110.069 173.197 109.947 173.072 109.845C172.947 109.744 172.803 109.667 172.639 109.613C172.478 109.559 172.302 109.532 172.113 109.532C171.77 109.532 171.472 109.617 171.218 109.787C170.964 109.955 170.767 110.201 170.627 110.524C170.487 110.844 170.417 111.234 170.417 111.693C170.417 112.164 170.487 112.56 170.627 112.881C170.769 113.202 170.967 113.444 171.221 113.608C171.475 113.772 171.769 113.853 172.103 113.853C172.29 113.853 172.464 113.829 172.623 113.779C172.785 113.73 172.928 113.658 173.053 113.563C173.178 113.466 173.281 113.349 173.363 113.211C173.447 113.073 173.505 112.916 173.537 112.739L174.952 112.746C174.915 113.049 174.824 113.342 174.677 113.624C174.533 113.904 174.338 114.155 174.093 114.377C173.849 114.596 173.559 114.771 173.221 114.9C172.885 115.027 172.505 115.09 172.081 115.09C171.491 115.09 170.963 114.957 170.498 114.69C170.035 114.423 169.669 114.036 169.4 113.53C169.133 113.024 168.999 112.412 168.999 111.693C168.999 110.971 169.135 110.358 169.406 109.852C169.678 109.346 170.046 108.96 170.511 108.696C170.976 108.429 171.499 108.295 172.081 108.295C172.464 108.295 172.819 108.349 173.146 108.457C173.476 108.564 173.768 108.721 174.022 108.928C174.276 109.133 174.482 109.383 174.642 109.681C174.803 109.978 174.907 110.318 174.952 110.701ZM176.258 115V108.385H180.715V109.539H177.656V111.115H180.485V112.268H177.656V113.847H180.728V115H176.258ZM185.718 110.288C185.692 110.027 185.581 109.825 185.385 109.681C185.189 109.536 184.924 109.464 184.588 109.464C184.359 109.464 184.167 109.497 184.01 109.561C183.852 109.624 183.732 109.711 183.648 109.823C183.566 109.935 183.525 110.062 183.525 110.204C183.521 110.322 183.546 110.426 183.599 110.514C183.655 110.602 183.732 110.679 183.829 110.743C183.926 110.806 184.038 110.861 184.165 110.908C184.292 110.953 184.427 110.992 184.571 111.024L185.166 111.166C185.454 111.231 185.719 111.317 185.96 111.425C186.201 111.532 186.41 111.665 186.587 111.822C186.763 111.979 186.9 112.164 186.997 112.377C187.096 112.591 187.147 112.835 187.149 113.111C187.147 113.515 187.043 113.866 186.839 114.163C186.636 114.458 186.344 114.688 185.96 114.851C185.579 115.013 185.119 115.094 184.581 115.094C184.047 115.094 183.582 115.012 183.186 114.848C182.792 114.685 182.484 114.442 182.262 114.122C182.043 113.799 181.927 113.399 181.917 112.923H183.27C183.285 113.145 183.348 113.33 183.46 113.479C183.575 113.625 183.726 113.736 183.916 113.811C184.107 113.885 184.324 113.921 184.565 113.921C184.802 113.921 185.008 113.887 185.182 113.818C185.358 113.749 185.495 113.653 185.592 113.53C185.689 113.408 185.737 113.267 185.737 113.107C185.737 112.959 185.693 112.834 185.605 112.733C185.519 112.632 185.392 112.545 185.224 112.474C185.058 112.403 184.855 112.339 184.613 112.281L183.893 112.1C183.336 111.964 182.895 111.752 182.572 111.463C182.249 111.175 182.089 110.786 182.091 110.297C182.089 109.897 182.195 109.547 182.411 109.248C182.628 108.949 182.926 108.715 183.305 108.547C183.684 108.379 184.115 108.295 184.597 108.295C185.088 108.295 185.517 108.379 185.883 108.547C186.251 108.715 186.537 108.949 186.742 109.248C186.946 109.547 187.052 109.894 187.058 110.288H185.718ZM191.981 110.288C191.955 110.027 191.844 109.825 191.648 109.681C191.452 109.536 191.186 109.464 190.85 109.464C190.622 109.464 190.43 109.497 190.272 109.561C190.115 109.624 189.995 109.711 189.911 109.823C189.829 109.935 189.788 110.062 189.788 110.204C189.784 110.322 189.808 110.426 189.862 110.514C189.918 110.602 189.995 110.679 190.091 110.743C190.188 110.806 190.3 110.861 190.427 110.908C190.554 110.953 190.69 110.992 190.834 111.024L191.429 111.166C191.717 111.231 191.982 111.317 192.223 111.425C192.464 111.532 192.673 111.665 192.85 111.822C193.026 111.979 193.163 112.164 193.26 112.377C193.359 112.591 193.41 112.835 193.412 113.111C193.41 113.515 193.306 113.866 193.102 114.163C192.899 114.458 192.606 114.688 192.223 114.851C191.842 115.013 191.382 115.094 190.844 115.094C190.31 115.094 189.845 115.012 189.449 114.848C189.055 114.685 188.747 114.442 188.525 114.122C188.305 113.799 188.19 113.399 188.179 112.923H189.533C189.548 113.145 189.611 113.33 189.723 113.479C189.837 113.625 189.989 113.736 190.179 113.811C190.37 113.885 190.587 113.921 190.828 113.921C191.065 113.921 191.27 113.887 191.445 113.818C191.621 113.749 191.758 113.653 191.855 113.53C191.952 113.408 192 113.267 192 113.107C192 112.959 191.956 112.834 191.868 112.733C191.782 112.632 191.655 112.545 191.487 112.474C191.321 112.403 191.117 112.339 190.876 112.281L190.156 112.1C189.598 111.964 189.158 111.752 188.835 111.463C188.512 111.175 188.352 110.786 188.354 110.297C188.352 109.897 188.458 109.547 188.674 109.248C188.891 108.949 189.189 108.715 189.568 108.547C189.947 108.379 190.378 108.295 190.86 108.295C191.351 108.295 191.78 108.379 192.146 108.547C192.514 108.715 192.8 108.949 193.005 109.248C193.209 109.547 193.315 109.894 193.321 110.288H191.981ZM194.655 115V108.385H199.035V109.539H196.054V111.115H198.744V112.268H196.054V115H194.655ZM204.364 108.385H205.763V112.681C205.763 113.163 205.648 113.585 205.417 113.947C205.189 114.309 204.869 114.591 204.458 114.793C204.047 114.994 203.568 115.094 203.021 115.094C202.472 115.094 201.992 114.994 201.58 114.793C201.169 114.591 200.849 114.309 200.621 113.947C200.393 113.585 200.279 113.163 200.279 112.681V108.385H201.677V112.562C201.677 112.813 201.732 113.037 201.842 113.233C201.954 113.429 202.111 113.583 202.314 113.695C202.516 113.807 202.752 113.863 203.021 113.863C203.292 113.863 203.528 113.807 203.728 113.695C203.931 113.583 204.087 113.429 204.197 113.233C204.309 113.037 204.364 112.813 204.364 112.562V108.385ZM207.217 115V108.385H208.615V113.847H211.451V115H207.217Z" fill="white"/>
</svg>
