<svg width="308" height="266" viewBox="0 0 308 266" fill="none" xmlns="http://www.w3.org/2000/svg">
<path d="M300.036 45.8221H61.7228C57.6133 45.8221 54.282 49.1535 54.282 53.2629V207.178C54.282 211.288 57.6133 214.619 61.7228 214.619H300.036C304.146 214.619 307.477 211.288 307.477 207.178V53.2629C307.477 49.1535 304.146 45.8221 300.036 45.8221Z" fill="#F5F5F5"/>
<path d="M295.226 49.9417H65.849C61.7396 49.9417 58.4082 53.2731 58.4082 57.3825V202.589C58.4082 206.698 61.7396 210.03 65.849 210.03H295.226C299.335 210.03 302.666 206.698 302.666 202.589V57.3825C302.666 53.2731 299.335 49.9417 295.226 49.9417Z" fill="#E0E0E0"/>
<path d="M296.91 99.2228H62.085V187.66H296.91V99.2228Z" fill="white"/>
<path d="M255.13 97.2032H16.8163C12.7068 97.2032 9.37549 100.535 9.37549 104.644V258.559C9.37549 262.669 12.7068 266 16.8163 266H255.13C259.239 266 262.571 262.669 262.571 258.559V104.644C262.571 100.535 259.239 97.2032 255.13 97.2032Z" fill="#F5F5F5"/>
<path d="M250.319 101.33H20.9426C16.8332 101.33 13.5018 104.661 13.5018 108.77V253.977C13.5018 258.086 16.8332 261.417 20.9426 261.417H250.319C254.429 261.417 257.76 258.086 257.76 253.977V108.77C257.76 104.661 254.429 101.33 250.319 101.33Z" fill="#E0E0E0"/>
<path d="M252.003 150.604H17.1786V239.041H252.003V150.604Z" fill="white"/>
<path d="M228.527 76.8199C228.527 76.8199 228.741 76.8803 229.144 77.0145C229.547 77.1487 230.144 77.3365 230.949 77.5378C233.293 78.1178 235.719 78.2903 238.121 78.0477C239.852 77.8756 241.563 77.5454 243.234 77.0614C245.231 76.5113 247.17 75.7698 249.024 74.8473C253.536 72.5538 257.509 69.3267 260.678 65.3802C261.603 64.2952 262.305 63.0391 262.745 61.6833C263.202 60.2687 263.084 58.7309 262.416 57.4027C262.023 56.7482 261.475 56.1996 260.822 55.8045C260.168 55.4093 259.428 55.1795 258.666 55.1349C257.062 54.9914 255.45 55.303 254.016 56.034C253.256 56.395 252.472 56.7 251.668 56.9464C250.824 57.1949 249.928 57.1949 249.084 56.9464C248.641 56.8347 248.232 56.6143 247.894 56.3051C247.557 55.9959 247.302 55.6075 247.152 55.1751C247.034 54.7305 247.013 54.2658 247.089 53.8122C247.166 53.3586 247.338 52.9266 247.595 52.545C248.087 51.7762 248.784 51.1603 249.608 50.767C250.425 50.3763 251.268 50.0422 252.131 49.7673C253.853 49.1562 255.525 48.4091 257.129 47.5331C258.777 46.6357 260.348 45.6034 261.826 44.4467C262.589 43.8891 263.279 43.2376 263.879 42.5077C264.496 41.8016 264.847 40.9022 264.872 39.9648C264.837 39.5034 264.683 39.059 264.426 38.6746C264.168 38.2902 263.816 37.9788 263.402 37.7708C262.539 37.3402 261.589 37.1108 260.625 37.0998C259.618 37.0868 258.614 36.9813 257.626 36.7845C257.103 36.6783 256.612 36.4488 256.196 36.115C255.779 35.7813 255.448 35.3529 255.23 34.8656C255.131 34.6034 255.093 34.3217 255.119 34.0424C255.146 33.7632 255.237 33.4938 255.385 33.2553C255.692 32.8187 256.084 32.4489 256.539 32.1684C257.371 31.5914 258.187 30.9808 258.988 30.3367C260.591 29.0366 262.092 27.6144 263.476 26.0829C264.932 24.5873 266.145 22.8736 267.073 21.0038C267.504 20.059 267.691 19.0207 267.616 17.9846C267.526 16.9468 267.083 15.9712 266.361 15.2203C265.634 14.4752 264.728 13.9291 263.73 13.6342C262.731 13.3394 261.674 13.3056 260.658 13.5362C258.638 14.039 256.824 15.1602 255.472 16.7433C252.687 19.8498 251.393 23.8822 249.125 27.2638C248.568 28.1159 247.935 28.9154 247.233 29.6523C246.89 30.0392 246.492 30.3737 246.052 30.6453C245.82 30.8003 245.552 30.8918 245.274 30.9107C244.997 30.9295 244.719 30.875 244.468 30.7527C244.237 30.6024 244.04 30.4053 243.89 30.1742C243.74 29.9431 243.64 29.683 243.596 29.4108C243.506 28.9105 243.486 28.4003 243.536 27.8945C243.587 27.4251 243.555 26.9505 243.442 26.4922C243.313 26.0485 243.067 25.6476 242.731 25.3314C242.389 25.0197 241.989 24.7786 241.554 24.622C241.118 24.4654 240.656 24.3964 240.194 24.419C239.27 24.5019 238.404 24.9054 237.745 25.5596C237.092 26.2064 236.59 26.9901 236.276 27.8542C235.956 28.7172 235.757 29.6204 235.686 30.538C235.525 32.3697 235.598 34.2148 235.572 36.0196C235.545 37.8245 235.572 39.6226 235.572 41.3872C235.572 43.1518 235.719 44.9164 235.135 46.6004C235 47.0265 234.773 47.4178 234.471 47.747C234.168 48.0761 233.797 48.3352 233.384 48.5059C232.552 48.7748 231.652 48.7415 230.841 48.412C229.297 47.8092 227.926 46.8343 226.849 45.5739C226.329 44.9689 225.879 44.3072 225.507 43.6013C225.168 42.9096 224.789 42.2376 224.374 41.5885C223.983 40.9608 223.388 40.4869 222.689 40.2466C221.994 40.0624 221.255 40.1363 220.609 40.4546C219.97 40.7615 219.416 41.2226 218.999 41.7965C218.599 42.3662 218.329 43.0166 218.208 43.702C218.034 45.0569 217.953 46.4221 217.966 47.788C217.912 49.1299 217.906 50.4181 217.926 51.6862C217.967 54.0647 218.18 56.4371 218.563 58.7848C218.882 60.838 219.383 62.8588 220.059 64.8234C220.341 65.7358 220.73 66.5611 221.059 67.373C221.388 68.1848 221.784 68.9094 222.186 69.5804C223.371 71.6817 224.879 73.5836 226.655 75.2163C226.915 75.4705 227.19 75.708 227.48 75.9275L228.097 76.424L228.587 76.8333C228.587 76.8333 228.413 76.7125 228.077 76.4509L227.446 75.9678C227.153 75.7624 226.873 75.5382 226.608 75.2968C224.806 73.6762 223.275 71.7781 222.072 69.6743C221.663 69.0034 221.314 68.2452 220.918 67.4602C220.522 66.6752 220.187 65.8231 219.905 64.9039C219.215 62.9411 218.703 60.9201 218.375 58.8654C217.976 56.5077 217.752 54.1238 217.704 51.7332C217.704 50.4651 217.704 49.1635 217.704 47.8216C217.688 46.4446 217.766 45.0681 217.939 43.702C218.067 42.9798 218.349 42.2935 218.764 41.6891C219.208 41.0801 219.796 40.5912 220.475 40.2667C221.177 39.9202 221.98 39.8392 222.736 40.0386C223.492 40.2922 224.138 40.7964 224.568 41.4677C224.988 42.1177 225.373 42.7896 225.722 43.4805C226.095 44.169 226.545 44.8128 227.064 45.3995C228.112 46.6175 229.441 47.5617 230.935 48.1503C231.685 48.4495 232.514 48.4803 233.284 48.2376C233.656 48.0812 233.989 47.8452 234.261 47.5461C234.532 47.247 234.734 46.8922 234.854 46.5065C235.404 44.9231 235.223 43.1518 235.263 41.3939C235.303 39.636 235.263 37.8446 235.263 36.0263C235.263 34.2081 235.209 32.3831 235.37 30.5111C235.445 29.5615 235.65 28.6267 235.981 27.7334C236.322 26.8225 236.863 25.9995 237.564 25.3247C238.287 24.6132 239.237 24.1785 240.248 24.0969C241.256 24.0587 242.239 24.4177 242.986 25.0966C243.374 25.4601 243.653 25.9249 243.791 26.4385C243.913 26.9319 243.949 27.4425 243.898 27.9481C243.851 28.4247 243.869 28.9055 243.952 29.3773C243.988 29.5988 244.07 29.8106 244.191 29.9998C244.312 30.1889 244.47 30.3515 244.656 30.4776C244.857 30.5705 245.078 30.6095 245.298 30.5907C245.518 30.5718 245.729 30.4959 245.911 30.3702C246.322 30.1023 246.692 29.7769 247.011 29.4041C247.697 28.6807 248.317 27.897 248.863 27.0625C251.097 23.7077 252.386 19.6821 255.23 16.4951C256.631 14.8591 258.508 13.7005 260.598 13.1806C261.674 12.9359 262.794 12.9722 263.852 13.286C264.909 13.5997 265.868 14.1804 266.636 14.972C267.409 15.7784 267.883 16.8249 267.978 17.9376C268.058 19.0309 267.862 20.1268 267.408 21.1246C266.468 23.034 265.232 24.7823 263.745 26.3043C262.345 27.8454 260.831 29.2786 259.216 30.5917C258.417 31.2626 257.585 31.853 256.747 32.4368C256.333 32.6934 255.972 33.0284 255.687 33.4231C255.561 33.6211 255.485 33.8461 255.464 34.0794C255.443 34.3128 255.478 34.5477 255.566 34.7649C255.771 35.1966 256.076 35.5736 256.455 35.8651C256.834 36.1566 257.276 36.3544 257.746 36.4423C258.715 36.6337 259.698 36.737 260.685 36.751C261.704 36.7717 262.704 37.0241 263.61 37.489C264.066 37.7338 264.459 38.0805 264.758 38.5021C265.05 38.9337 265.217 39.4376 265.241 39.9581C265.224 40.9748 264.846 41.9524 264.174 42.7157C263.563 43.4735 262.857 44.1499 262.074 44.7285C260.581 45.8901 258.997 46.9289 257.337 47.835C255.718 48.7183 254.031 49.47 252.292 50.0827C251.44 50.3515 250.609 50.6788 249.802 51.0622C249.019 51.4253 248.354 52.0021 247.883 52.7262C247.649 53.071 247.491 53.4617 247.419 53.8724C247.347 54.283 247.364 54.7042 247.467 55.1081C247.603 55.4936 247.832 55.8395 248.134 56.1147C248.436 56.3899 248.802 56.5857 249.199 56.6848C249.989 56.9161 250.83 56.9161 251.621 56.6848C252.412 56.447 253.183 56.1486 253.929 55.7924C255.412 55.0491 257.073 54.7332 258.726 54.8799C259.534 54.9582 260.316 55.2075 261.021 55.6113C261.715 56.0151 262.288 56.5993 262.678 57.302C263.378 58.6925 263.501 60.3033 263.02 61.784C262.568 63.1701 261.848 64.4536 260.9 65.5614C257.699 69.5247 253.689 72.7592 249.138 75.0486C247.27 75.9685 245.318 76.7055 243.308 77.2493C241.624 77.7288 239.898 78.0501 238.155 78.2087C235.74 78.4362 233.303 78.2409 230.955 77.6317C230.346 77.4795 229.746 77.2936 229.157 77.0748C228.728 76.9071 228.527 76.8199 228.527 76.8199Z" fill="#263238"/>
<path d="M265.127 14.7305C265.127 14.7305 265.073 14.7976 264.952 14.9049C264.832 15.0123 264.637 15.1733 264.416 15.3746C263.939 15.7839 263.242 16.3877 262.363 17.1928C259.876 19.4604 257.564 21.9118 255.445 24.5263C254.103 26.1768 252.688 28.0421 251.218 30.075C249.749 32.108 248.199 34.302 246.649 36.6637C245.011 39.1193 243.51 41.6638 242.154 44.2857C241.449 45.6276 240.812 47.0768 240.174 48.5328C239.537 49.9887 238.886 51.4715 238.229 52.9677C235.727 58.5733 233.541 64.3144 231.68 70.1641C230.179 74.9506 229.132 79.868 228.554 84.8511C228.173 88.2142 228.086 91.6041 228.292 94.9824C228.372 96.1767 228.453 97.1026 228.533 97.7333C228.567 98.0285 228.587 98.27 228.607 98.4445C228.612 98.5272 228.612 98.6101 228.607 98.6927C228.58 98.6147 228.562 98.5336 228.554 98.4512C228.554 98.2767 228.493 98.0352 228.446 97.74C228.346 97.116 228.245 96.1901 228.138 94.9891C227.885 91.6051 227.939 88.2052 228.299 84.831C228.847 79.8235 229.876 74.8805 231.372 70.0701C233.216 64.2015 235.398 58.4441 237.907 52.8268L239.852 48.3919C240.523 46.9426 241.134 45.5001 241.865 44.1314C243.234 41.5008 244.746 38.9473 246.394 36.4826C247.957 34.1208 249.521 31.9403 250.997 29.9073C252.473 27.8743 253.902 26.0091 255.264 24.3653C257.407 21.7584 259.753 19.3264 262.282 17.0922C263.174 16.3005 263.886 15.7101 264.369 15.3142L264.932 14.8714L265.127 14.7305Z" fill="#263238"/>
<path d="M241.952 44.1247C241.87 43.8739 241.814 43.6153 241.785 43.3531C241.697 42.8566 241.59 42.1387 241.469 41.2396C241.234 39.4549 240.993 36.9724 240.731 34.2416C240.47 31.5109 240.201 29.0284 239.933 27.2504C239.805 26.3647 239.691 25.6401 239.611 25.1436C239.553 24.888 239.522 24.6272 239.517 24.3653C239.618 24.6091 239.693 24.8634 239.738 25.1235C239.859 25.6065 240.007 26.3245 240.168 27.2168C240.49 28.9881 240.805 31.4639 241.06 34.2081C241.315 36.9523 241.53 39.3475 241.731 41.2128C241.811 42.0582 241.885 42.7694 241.939 43.3397C241.97 43.6002 241.975 43.8632 241.952 44.1247Z" fill="#263238"/>
<path d="M265.053 40.0252C264.751 40.092 264.443 40.128 264.134 40.1325C263.537 40.1795 262.685 40.2399 261.624 40.3539C259.511 40.5619 256.599 40.9511 253.412 41.5214C250.225 42.0917 247.374 42.7425 245.294 43.2726C244.26 43.5275 243.428 43.7556 242.851 43.91C242.559 44.0099 242.258 44.0818 241.952 44.1247C242.229 43.9822 242.519 43.8676 242.818 43.7825C243.381 43.5946 244.207 43.3262 245.233 43.0444C247.246 42.454 250.151 41.7696 253.352 41.1926C256.082 40.6944 258.837 40.3361 261.604 40.1191C262.664 40.0386 263.53 40.005 264.127 39.9983C264.436 39.9829 264.746 39.9919 265.053 40.0252Z" fill="#263238"/>
<path d="M231.667 69.6542C231.606 69.5659 231.554 69.4714 231.512 69.3724C231.412 69.1442 231.284 68.8692 231.13 68.5337C230.795 67.8024 230.338 66.7355 229.788 65.4071C228.694 62.7568 227.312 59.0465 225.836 54.9336C224.36 50.8207 223.005 47.0969 221.978 44.4266L220.744 41.2664C220.61 40.9242 220.502 40.6357 220.415 40.4009C220.366 40.3042 220.334 40.1998 220.321 40.0923C220.384 40.1818 220.436 40.2787 220.475 40.3808C220.583 40.6022 220.71 40.8773 220.865 41.2127C221.193 41.9441 221.65 43.0109 222.206 44.3393C223.293 47.0231 224.682 50.6999 226.158 54.8195C227.634 58.9391 228.983 62.6495 230.016 65.3198L231.244 68.5001L231.573 69.3657C231.62 69.4561 231.651 69.5535 231.667 69.6542Z" fill="#263238"/>
<path d="M262.403 60.0663L262.101 60.1871L261.202 60.4756L257.914 61.5089C255.136 62.3811 251.312 63.629 247.085 65.0179C242.858 66.4068 239.034 67.6212 236.222 68.433C234.827 68.8423 233.693 69.1644 232.901 69.3656L231.995 69.5938C231.89 69.6321 231.779 69.6525 231.667 69.6541C231.764 69.6001 231.867 69.5595 231.975 69.5334L232.868 69.2382L236.155 68.2049C238.94 67.3327 242.764 66.0847 246.984 64.7026C251.205 63.3204 255.036 62.0993 257.847 61.2807C259.243 60.8715 260.383 60.5561 261.202 60.3481L262.114 60.12C262.207 60.0889 262.305 60.0708 262.403 60.0663Z" fill="#263238"/>
<path d="M212.283 35.8854C213.293 35.9677 214.277 36.2525 215.175 36.7228C216.073 37.1931 216.867 37.8393 217.51 38.6229C218.79 40.1995 219.69 42.05 220.14 44.0307C221.119 47.8215 220.462 52.2766 219.348 56.0272C215.269 54.531 212.786 50.143 211.659 47.8417C209.888 44.1984 208.895 36.5429 212.283 35.8854Z" fill="#215ADF"/>
<path d="M225.199 60.6568C224.593 59.699 224.251 58.5984 224.208 57.4662C224.164 56.334 224.42 55.2104 224.95 54.209C225.5 53.2185 226.241 52.3471 227.13 51.6456C228.019 50.9442 229.039 50.4265 230.13 50.1229C230.615 49.9291 231.137 49.8437 231.658 49.8726C232.18 49.9016 232.689 50.0443 233.149 50.2906C233.539 50.5899 233.84 50.988 234.023 51.4435C234.206 51.899 234.264 52.3953 234.189 52.8805C234.029 53.848 233.614 54.7556 232.988 55.5106C230.976 58.1944 228.54 60.4085 225.199 60.6568Z" fill="#215ADF"/>
<path d="M225.541 73.2907C225.457 73.0351 225.396 72.7724 225.36 72.5057C225.259 71.9421 225.125 71.2175 224.964 70.3453C224.445 67.971 224.314 65.5286 224.575 63.1125C224.873 60.6707 225.82 58.3537 227.319 56.403C227.775 55.8223 228.3 55.2996 228.882 54.8464C229.039 54.7217 229.203 54.6052 229.372 54.4975C229.432 54.4589 229.498 54.4295 229.567 54.4103C228.805 55.0487 228.108 55.7611 227.487 56.5372C226.072 58.4797 225.172 60.7486 224.87 63.1326C224.615 65.5229 224.717 67.9379 225.172 70.2983C225.313 71.2108 225.42 71.9555 225.487 72.4655C225.531 72.7383 225.549 73.0146 225.541 73.2907Z" fill="#263238"/>
<path d="M213.558 41.6623C213.621 41.76 213.675 41.8633 213.719 41.9709C213.826 42.2057 213.96 42.5077 214.135 42.8834C214.484 43.6818 214.987 44.8425 215.591 46.2784C216.799 49.15 218.409 53.1422 220.093 57.5905C221.777 62.0389 223.206 66.1049 224.199 69.057C224.696 70.5331 225.091 71.7408 225.353 72.5661L225.642 73.5255C225.682 73.6363 225.711 73.751 225.729 73.8677C225.675 73.7637 225.627 73.6561 225.588 73.5457C225.501 73.2974 225.387 72.9888 225.246 72.5996C224.944 71.7475 224.521 70.5868 224.011 69.1241C222.965 66.1854 221.509 62.1395 219.825 57.718C218.14 53.2965 216.564 49.2708 215.403 46.379C214.833 44.9566 214.37 43.7959 214.028 42.9572L213.665 42.0179C213.613 41.9049 213.577 41.7852 213.558 41.6623Z" fill="#263238"/>
<path d="M220.757 64.8972C219.547 62.8337 217.863 61.0881 215.845 59.8046C213.827 58.5212 211.531 57.737 209.15 57.5167C207.935 57.4161 206.466 57.6107 205.936 58.6909C205.406 59.7711 206.097 61.0661 206.909 61.9718C208.647 63.82 210.894 65.112 213.365 65.6852C215.837 66.2583 218.423 66.0868 220.797 65.1924" fill="#215ADF"/>
<path d="M210.961 60.7977C211.213 60.7724 211.467 60.7724 211.72 60.7977C212.014 60.8185 212.308 60.8565 212.598 60.9117C212.941 60.9788 213.336 61.0191 213.759 61.1399C214.224 61.2463 214.683 61.3762 215.135 61.529C215.655 61.7022 216.166 61.9037 216.664 62.1329C218.972 63.1667 220.991 64.7519 222.542 66.749C222.879 67.1778 223.19 67.6258 223.475 68.0909C223.72 68.4969 223.944 68.9157 224.145 69.3455C224.321 69.6972 224.477 70.0577 224.615 70.4258C224.733 70.6982 224.831 70.9784 224.91 71.2644C224.999 71.503 225.062 71.7505 225.098 72.0025C225.038 72.0025 224.756 70.9759 223.964 69.4328C223.749 69.0158 223.511 68.6104 223.253 68.2184C222.965 67.754 222.651 67.306 222.314 66.8765C221.537 65.9132 220.658 65.038 219.69 64.2665C218.711 63.5124 217.654 62.8647 216.537 62.3341C216.048 62.1021 215.546 61.8982 215.034 61.7236C214.595 61.5569 214.147 61.4158 213.692 61.3009C212.035 60.9252 210.955 60.8581 210.961 60.7977Z" fill="#263238"/>
<path d="M281.069 69.9762H42.755C38.6456 69.9762 35.3142 73.3076 35.3142 77.417V231.332C35.3142 235.442 38.6456 238.773 42.755 238.773H281.069C285.178 238.773 288.509 235.442 288.509 231.332V77.417C288.509 73.3076 285.178 69.9762 281.069 69.9762Z" fill="#F5F5F5"/>
<path d="M276.258 74.1025H46.8812C42.7718 74.1025 39.4404 77.4339 39.4404 81.5433V226.75C39.4404 230.859 42.7718 234.19 46.8812 234.19H276.258C280.367 234.19 283.699 230.859 283.699 226.75V81.5433C283.699 77.4339 280.367 74.1025 276.258 74.1025Z" fill="#215ADF"/>
<path d="M277.942 123.384H43.1173V211.821H277.942V123.384Z" fill="white"/>
<path d="M33.7107 155.831L22.3046 176.818L23.2439 125.859C23.4584 122.622 24.5509 119.505 26.404 116.842C27.1899 115.647 28.1107 114.546 29.1482 113.561C30.4901 112.427 32.2815 110.991 33.5094 110.508C35.0324 109.904 35.0794 107.791 33.6637 107.422C32.248 107.053 28.0076 108.609 24.3174 112.394C20.6272 116.178 21.4592 107.999 21.7141 105.013C21.9691 102.027 22.3113 92.7683 21.4525 91.99C20.1978 90.8427 18.7016 91.99 18.5204 94.9959C18.3393 98.0017 17.1785 106.905 15.5884 106.737C13.9982 106.57 15.5347 91.3929 15.5347 91.3929C15.5347 91.3929 16.3801 88.1858 14.5753 87.9308C11.3145 87.4678 10.9186 103.691 10.9186 105.241C10.9186 106.315 9.20768 106.194 9.26806 105.04C9.32845 103.886 11.1065 89.9168 7.79198 89.4203C5.24909 89.0379 7.34245 102.765 5.36986 105.523C3.39728 108.281 4.84653 94.9221 2.39757 94.6537C1.49179 94.553 0.794008 94.6067 1.05568 102.349C1.20329 106.516 3.06852 112.742 2.73304 120.78L2.65253 122.86C0.726913 137.896 -7.94843 216.779 21.9154 214.639C21.9154 214.639 44.5733 211.492 57.167 170.256L33.7107 155.831Z" fill="#FFBE9D"/>
<path d="M8.1543 117.325C8.1543 117.399 8.65751 117.459 9.40226 117.848C10.4062 118.366 11.1899 119.228 11.6097 120.277L11.8445 120.874L12.1062 120.291C12.4824 119.458 13.0076 118.7 13.6561 118.056C14.9053 116.785 16.5098 115.922 18.2588 115.58C19.6006 115.305 20.4729 115.46 20.4863 115.352C19.7526 115.082 18.9579 115.021 18.1917 115.178C16.3094 115.422 14.5647 116.294 13.2401 117.654C12.5507 118.351 11.9998 119.173 11.6164 120.076H12.1129C11.8723 119.506 11.5214 118.989 11.0804 118.555C10.6394 118.121 10.117 117.778 9.54316 117.546C9.11566 117.326 8.62902 117.249 8.1543 117.325Z" fill="#EB996E"/>
<path d="M169.926 165.633L182.614 189.532L194.201 211.821H168.001L151.764 178.361" fill="#FFBE9D"/>
<path d="M70.5524 211.821C73.0483 203.32 71.4112 201.978 68.7274 193.538L62.9573 175.422L50.3301 194.075L23.4855 172.497L32.3889 152.415C49.0217 114.722 76.0005 117.399 76.0005 117.399L110.38 110.837C110.38 110.837 132.373 108.824 146.611 121.746C151.254 125.96 172.342 163.922 172.342 163.922L146.43 182.078L140.076 171.242L138.318 185.969C136.936 194.021 137.023 204.266 140.076 211.821" fill="#455A64"/>
<path d="M67.5599 130.227C67.5599 130.321 61.9038 131.569 54.8924 133.012C47.881 134.454 42.1444 135.548 42.1444 135.454C42.1444 135.36 47.7938 134.112 54.8119 132.67C61.83 131.227 67.5397 130.12 67.5599 130.227Z" fill="#FAFAFA"/>
<path d="M143.155 119.371C143.155 119.472 137.607 120.579 130.716 121.847C123.825 123.115 118.23 124.075 118.21 123.974C118.19 123.873 123.765 122.773 130.656 121.505C137.546 120.237 143.142 119.277 143.155 119.371Z" fill="#FAFAFA"/>
<path d="M153.75 131.643C153.75 131.737 145.115 133.656 134.42 135.984C123.725 138.312 115.043 140.077 115.023 140.01C115.003 139.943 123.651 137.997 134.346 135.669C145.041 133.34 153.703 131.569 153.75 131.643Z" fill="#FAFAFA"/>
<path d="M164.344 150.557L163.982 150.631L162.922 150.819L158.822 151.49L143.746 153.959L93.9751 161.943C74.5177 165.023 56.9188 167.767 44.1573 169.686C37.7834 170.652 32.6171 171.403 29.0409 171.9C27.2562 172.141 25.8673 172.322 24.9213 172.423C24.45 172.526 23.9653 172.553 23.4855 172.504C23.9652 172.496 24.4434 172.447 24.9146 172.356L29.0208 171.766L44.1238 169.444L93.9215 161.594L143.686 153.71L158.782 151.349L162.888 150.725L163.962 150.57L164.344 150.557Z" fill="#FAFAFA"/>
<path d="M139.029 179.931C139.029 180.025 123.047 182.192 103.315 184.762C83.5822 187.332 67.5734 189.338 67.5599 189.244C67.5465 189.15 83.5352 186.989 103.274 184.413C123.014 181.837 138.989 179.837 139.029 179.931Z" fill="#FAFAFA"/>
<path d="M135.976 205.051C135.976 205.152 121.672 205.138 104.039 205.051C86.4069 204.964 72.0956 204.783 72.0956 204.682C72.0956 204.582 86.3935 204.595 104.039 204.682C121.685 204.769 135.976 204.957 135.976 205.051Z" fill="#FAFAFA"/>
<path d="M77.3892 145.753C77.2387 145.802 77.0836 145.836 76.9262 145.854L75.5843 146.075L70.6864 146.853C66.5467 147.524 60.8369 148.47 54.5837 149.644C48.3305 150.819 42.6274 151.993 38.528 152.872L33.6502 153.912L32.3083 154.187C32.1549 154.229 31.9974 154.253 31.8386 154.261C31.9834 154.199 32.134 154.152 32.2882 154.12L33.6502 153.778C34.7908 153.496 36.4413 153.107 38.481 152.63C42.5671 151.684 48.2298 150.476 54.5233 149.275C60.8168 148.074 66.5333 147.189 70.6797 146.592C72.7597 146.29 74.437 146.062 75.6045 145.921L76.9464 145.766C77.0932 145.747 77.2415 145.743 77.3892 145.753Z" fill="#FAFAFA"/>
<path d="M106.904 37.4823C106.079 47.4257 119.404 54.4841 118.216 64.3873C117.888 67.1381 116.458 70.1306 117.914 72.4923C119.659 75.3304 123.906 74.7333 127.006 75.9611C130.823 77.4707 132.776 82.0667 132.199 86.1259C131.622 90.1852 128.992 93.6942 125.899 96.3981C121.016 100.667 114.912 103.29 108.454 103.893C105.462 104.161 102.335 103.946 99.6647 102.551C96.9943 101.155 94.8809 98.4646 94.8674 95.4588" fill="#263238"/>
<path d="M108.219 116.54C106.448 108.052 104.737 99.0953 104.737 99.0953C104.737 99.0953 115.278 94.9623 114.519 80.235C113.802 66.1854 104.912 35.2816 104.912 35.2816C87.8359 32.2019 70.1162 40.4143 61.5684 55.41L77.0874 124.075C78.8855 132.046 87.1516 136.823 95.6927 134.857C104.301 132.804 109.903 124.625 108.219 116.54Z" fill="#FFBE9D"/>
<path d="M106.066 60.6501C106.169 61.1255 106.083 61.6226 105.826 62.0359C105.57 62.4492 105.162 62.7463 104.69 62.8642C104.461 62.9324 104.221 62.9541 103.984 62.928C103.747 62.9019 103.518 62.8285 103.309 62.7122C103.101 62.5958 102.918 62.4389 102.772 62.2507C102.625 62.0624 102.518 61.8467 102.456 61.6163C102.349 61.1444 102.429 60.6496 102.68 60.2356C102.93 59.8216 103.33 59.5205 103.798 59.3954C104.029 59.323 104.272 59.2983 104.513 59.3228C104.754 59.3472 104.988 59.4203 105.2 59.5375C105.412 59.6548 105.598 59.8139 105.747 60.0051C105.896 60.1963 106.004 60.4158 106.066 60.6501Z" fill="#263238"/>
<path d="M108.125 58.805C107.951 59.0935 106.347 58.3622 104.381 58.805C102.416 59.2478 101.181 60.5159 100.919 60.3213C100.792 60.2341 100.919 59.7577 101.463 59.1673C102.181 58.3999 103.118 57.8727 104.147 57.6577C105.167 57.4369 106.232 57.5474 107.186 57.973C107.897 58.2884 108.192 58.6775 108.125 58.805Z" fill="#263238"/>
<path d="M85.9841 65.2595C86.0907 65.7314 86.0105 66.2261 85.7603 66.6402C85.5102 67.0542 85.1095 67.3553 84.6422 67.4804C84.4131 67.5475 84.1729 67.5682 83.9357 67.5413C83.6985 67.5143 83.4691 67.4402 83.261 67.3233C83.0528 67.2064 82.8701 67.0491 82.7236 66.8606C82.5771 66.6721 82.4698 66.4562 82.4079 66.2257C82.3015 65.7547 82.3819 65.2608 82.6322 64.8479C82.8824 64.435 83.2831 64.1352 83.7498 64.0116C83.9784 63.9433 84.2184 63.9216 84.4556 63.9477C84.6927 63.9738 84.9223 64.0473 85.1305 64.1636C85.3388 64.2799 85.5217 64.4369 85.6683 64.6251C85.8149 64.8133 85.9223 65.0291 85.9841 65.2595Z" fill="#263238"/>
<path d="M87.9969 63.3942C87.8224 63.676 86.2189 62.9447 84.253 63.3942C82.2871 63.8438 81.0593 65.1052 80.7909 64.9106C80.6634 64.8301 80.7909 64.347 81.3344 63.7566C82.0553 62.9929 82.9912 62.4664 84.0182 62.2469C85.0414 62.0289 86.1074 62.1393 87.0643 62.5623C87.8023 62.8776 88.1042 63.2601 87.9969 63.3942Z" fill="#263238"/>
<path d="M98.4504 76.1087C98.4169 75.9946 99.5977 75.525 101.523 74.854C102.013 74.693 102.469 74.4984 102.483 74.1361C102.407 73.6073 102.173 73.1137 101.812 72.7204L99.5172 69.2114C96.2967 64.1994 93.8544 60.0395 94.0624 59.9121C94.2704 59.7846 97.0347 63.7432 100.249 68.7484L102.49 72.291C102.929 72.8336 103.166 73.5119 103.16 74.2099C103.125 74.4021 103.046 74.5836 102.93 74.7406C102.814 74.8975 102.663 75.0259 102.49 75.1157C102.228 75.2508 101.951 75.3522 101.664 75.4176C99.7185 75.9477 98.484 76.2161 98.4504 76.1087Z" fill="#263238"/>
<path d="M104.771 99.0953C98.0926 100.609 91.1257 100.245 84.6422 98.0419C84.6422 98.0419 91.3517 106.851 105.327 102.497L104.771 99.0953Z" fill="#EB996E"/>
<path d="M98.6248 81.02C98.1505 80.6288 97.5843 80.365 96.9797 80.2535C96.3751 80.142 95.752 80.1864 95.1694 80.3826C94.743 80.5115 94.3475 80.7262 94.0071 81.0135C93.6668 81.3008 93.3887 81.6546 93.1901 82.0533C92.9949 82.4356 92.9224 82.8688 92.9824 83.2939C93.0425 83.7189 93.2321 84.1151 93.5256 84.4284C93.9128 84.7083 94.3739 84.8678 94.8513 84.8869C95.3286 84.906 95.801 84.7838 96.2093 84.5358C97.068 84.0159 97.8158 83.3319 98.4101 82.523C98.5943 82.3271 98.742 82.0999 98.8462 81.852C98.8965 81.727 98.9081 81.5898 98.8794 81.4582C98.8507 81.3265 98.783 81.2066 98.6851 81.114" fill="#215ADF"/>
<path d="M92.9486 78.6919C93.2707 78.6046 93.7269 80.7382 95.8739 81.8721C98.021 83.006 100.242 82.2814 100.322 82.5431C100.383 82.6706 99.9063 83.0664 98.9469 83.2946C97.6999 83.5787 96.3927 83.4124 95.2567 82.8249C94.1667 82.2656 93.3385 81.3025 92.9486 80.1411C92.6936 79.289 92.801 78.712 92.9486 78.6919Z" fill="#263238"/>
<path d="M70.1363 69.9762C68.5386 69.9728 66.9711 70.4117 65.6074 71.2443C64.2504 72.0918 63.2852 73.4431 62.9237 75.0016C62.6406 76.5849 62.9717 78.2165 63.8496 79.5641C64.7264 80.8986 65.891 82.0197 67.258 82.845C68.1951 83.5055 69.2761 83.9333 70.4114 84.093C70.9797 84.1691 71.558 84.1028 72.0943 83.9003C72.6307 83.6977 73.1083 83.365 73.4844 82.9322" fill="#FFBE9D"/>
<path d="M71.2232 79.3963C71.411 79.3963 70.9414 80.4766 69.472 80.396C68.6767 80.2968 67.953 79.8867 67.4592 79.2554C66.8756 78.559 66.4355 77.7541 66.1642 76.887C65.8514 75.969 65.8776 74.9694 66.238 74.069C66.3874 73.6853 66.623 73.3411 66.9266 73.063C67.2303 72.785 67.5939 72.5805 67.9892 72.4655C69.4183 72.13 70.0691 73.029 69.9148 73.0894C69.7605 73.1498 69.1567 72.8345 68.271 73.2572C67.3854 73.6799 66.7815 75.0419 67.3048 76.5381C67.8282 78.0343 68.7138 79.3762 69.6263 79.5574C70.5388 79.7385 71.1292 79.289 71.2232 79.3963Z" fill="#EB996E"/>
<path d="M100.745 32.1349C101.781 34.1736 102.129 36.4932 101.738 38.7464C101.346 40.9996 100.235 43.0654 98.571 44.6346C95.1626 47.7008 90.2244 48.1369 85.823 49.4184C81.4216 50.7 76.7049 53.9406 76.9061 58.5232C77.0269 61.3009 78.9995 63.9713 78.2883 66.6551C77.463 69.8018 73.444 71.1437 72.3102 74.1898C70.4919 79.0877 77.1477 83.4958 76.8525 88.7091C76.678 91.8021 74.0613 94.3249 73.7728 97.4314C73.3568 101.819 77.6643 106.482 75.269 110.179C73.4306 113.024 69.15 112.615 66.01 111.38C62.8699 110.146 59.4347 108.388 56.2879 109.622C54.3959 110.361 53.0607 112.051 51.3766 113.192C49.8387 114.236 48.0257 114.8 46.1671 114.813C44.3085 114.826 42.4878 114.287 40.9354 113.265C39.3831 112.243 38.1689 110.783 37.4465 109.07C36.7242 107.358 36.5261 105.47 36.8775 103.644C37.3874 100.961 39.0111 98.6592 40.3194 96.2639C41.6278 93.8687 42.6677 91.0708 41.8827 88.4608C41.2722 86.448 39.7022 84.9317 38.4542 83.2543C37.2062 81.5769 36.2334 79.3695 37.0385 77.4439C38.4475 74.0556 43.8486 74.3508 45.8078 71.2511C48.4916 66.9905 42.2652 61.5693 43.862 56.7922C45.6736 51.3843 55.2681 52.3505 57.0931 46.9427C57.764 44.9768 57.0931 42.8096 57.2742 40.7431C57.7506 36.0465 62.7089 32.9937 67.3854 32.1818C72.0619 31.37 76.9464 31.9738 81.5357 30.7661C84.045 30.0952 86.3933 28.9076 88.8624 28.0823C91.3315 27.2571 94.069 26.8478 96.5112 27.7536C98.9534 28.6594 100.906 31.2157 100.416 33.7921" fill="#263238"/>
<path d="M98.6314 42.2125C99.9893 44.5623 101.867 46.5701 104.121 48.082C106.375 49.5939 108.945 50.5697 111.634 50.9348C111.547 47.3385 111.359 43.7154 110.386 40.26C109.414 36.8046 107.589 33.4566 104.771 31.2626C101.953 29.0686 97.9672 28.1561 94.6259 29.4645" fill="#263238"/>
<path d="M115.908 111.179C117.123 111.34 123.913 151.167 97.8465 155.589C73.1758 159.782 65.5471 118.861 65.5471 118.861C65.5471 118.861 82.1665 106.67 115.908 111.179Z" fill="#FFBE9D"/>
<path d="M100.973 56.6513C101.127 56.9398 102.469 56.5104 104.14 56.3225C105.811 56.1346 107.206 56.2286 107.287 55.9132C107.367 55.5979 105.945 54.9538 104.006 55.1819C102.067 55.41 100.819 56.4231 100.973 56.6513Z" fill="#263238"/>
<path d="M81.0527 59.7376C81.1131 59.6839 81.1064 59.5699 81.0527 59.3887V59.6906C82.0161 59.2011 83.0341 58.8272 84.0854 58.5769C85.9372 58.1743 87.5072 58.6171 87.6347 58.3152C87.6884 58.1743 87.3529 57.859 86.6685 57.6443C85.7635 57.3361 84.7916 57.2804 83.8573 57.4832C83.239 57.5777 82.6464 57.7971 82.1158 58.1282C81.5851 58.4593 81.1275 58.895 80.7709 59.4088L80.6501 59.6504L80.7508 59.7041C80.885 59.7779 80.999 59.7779 81.0527 59.7376Z" fill="#263238"/>
<path d="M69.7942 58.5768C68.2728 58.5954 66.7521 58.499 65.2452 58.2883C63.7278 58.1953 62.2202 57.9822 60.7365 57.6509C62.2579 57.6325 63.7785 57.7289 65.2855 57.9394C66.8023 58.0378 68.3095 58.2509 69.7942 58.5768Z" fill="#215ADF"/>
<path d="M67.5801 61.1197C66.4502 61.366 65.2881 61.4294 64.1382 61.3076C62.984 61.3048 61.8378 61.1167 60.7432 60.7507C60.7432 60.6568 62.2796 60.8581 64.1583 60.9587C66.0369 61.0594 67.5734 61.0124 67.5801 61.1197Z" fill="#215ADF"/>
<path d="M100.966 40.26C100.939 40.4038 100.894 40.5436 100.832 40.676C100.668 41.0638 100.442 41.422 100.161 41.7361C99.0411 42.8297 97.5641 43.4825 96.0013 43.5745C94.9411 43.693 93.87 43.675 92.8143 43.5208C91.6804 43.3799 90.4795 43.1719 89.2181 43.078C87.9078 42.929 86.5808 43.0734 85.3333 43.5007C84.0348 44.0612 82.9126 44.9631 82.0859 46.1107C81.1667 47.2513 80.3951 48.4724 79.4894 49.5526C79.0429 50.0864 78.5464 50.5762 78.0066 51.0153C77.4761 51.4251 76.8941 51.7635 76.2755 52.0217C75.1291 52.448 73.942 52.756 72.7329 52.9409C71.6968 53.0995 70.6756 53.3441 69.6801 53.6722C68.2375 54.125 67.0032 55.0764 66.1979 56.356C65.9492 56.8506 65.7967 57.3879 65.7484 57.9394C65.7292 57.7947 65.7292 57.6481 65.7484 57.5033C65.7909 57.0838 65.9067 56.6751 66.0905 56.2956C66.8671 54.9322 68.1187 53.9027 69.6063 53.4039C70.6113 53.0563 71.6437 52.7937 72.6927 52.6188C73.8781 52.429 75.0406 52.1164 76.1615 51.6862C77.3719 51.1606 78.4308 50.3392 79.2411 49.2977C80.1267 48.2443 80.8916 47.0164 81.8242 45.8557C82.6979 44.6732 83.8726 43.7464 85.2259 43.1719C86.5198 42.7341 87.895 42.5897 89.2516 42.7492C91.8213 42.9773 94.069 43.5879 95.9611 43.3262C97.4855 43.2744 98.9424 42.685 100.074 41.6623C100.442 41.244 100.744 40.7709 100.966 40.26Z" fill="#455A64"/>
<path d="M44.9759 113.802C45.1784 113.76 45.3779 113.704 45.573 113.635C46.1136 113.387 46.5403 112.943 46.7673 112.393C47.1401 111.525 47.1593 110.545 46.821 109.663C46.4989 108.616 45.875 107.502 45.3986 106.174C44.1743 103.078 43.842 99.7004 44.4391 96.4249C44.8472 94.4975 45.6867 92.6875 46.8948 91.1312C47.5431 90.3145 48.3019 89.5919 49.1492 88.9841C50.0308 88.3829 50.9814 87.8895 51.9806 87.5148C52.9579 87.166 53.8663 86.6482 54.6644 85.985C55.0184 85.6474 55.2944 85.2365 55.4729 84.781C55.6514 84.3255 55.7281 83.8365 55.6976 83.3482C55.5836 81.3957 54.5168 79.6043 54.5503 77.672C54.5689 76.7333 54.8128 75.8129 55.2615 74.9882C55.6781 74.2309 56.1924 73.5316 56.7913 72.9083C57.8726 71.8202 59.0246 70.8049 60.2399 69.8689C62.387 68.0976 63.7221 66.172 64.0777 64.6556C64.2604 63.8699 64.2604 63.0528 64.0777 62.2671C64.104 62.3152 64.1222 62.3673 64.1314 62.4214C64.1314 62.522 64.2052 62.6763 64.2455 62.8776C64.3432 63.4797 64.3227 64.095 64.1851 64.6892C63.9554 65.6263 63.5427 66.5087 62.9707 67.2857C62.2238 68.3117 61.3541 69.2423 60.3808 70.0568C59.186 70.9994 58.0521 72.0168 56.9858 73.1028C56.4097 73.7078 55.9136 74.3843 55.5098 75.1157C55.0903 75.8919 54.8604 76.7564 54.8388 77.6384C54.8731 78.5716 55.0472 79.4944 55.3554 80.3759C55.6929 81.3214 55.9181 82.3032 56.0264 83.3012C56.0618 83.839 55.9787 84.378 55.7827 84.88C55.5868 85.382 55.2829 85.8349 54.8925 86.2064C54.0665 86.8998 53.1236 87.4405 52.1081 87.8033C51.1332 88.1918 50.2076 88.694 49.3505 89.2995C48.5287 89.8883 47.7926 90.5883 47.1632 91.3794C45.9833 92.8918 45.16 94.6508 44.7545 96.5256C44.1588 99.7432 44.4606 103.063 45.6267 106.12C46.083 107.462 46.6935 108.556 47.0089 109.643C47.1616 110.147 47.2341 110.672 47.2236 111.199C47.203 111.647 47.0912 112.085 46.8948 112.487C46.6405 113.055 46.1764 113.502 45.5999 113.735C45.4001 113.807 45.1863 113.83 44.9759 113.802Z" fill="#455A64"/>
</svg>
